<svg width="520" height="521" viewBox="0 0 520 521" fill="none" xmlns="http://www.w3.org/2000/svg">
<path d="M207.617 178.2V176.824H210.705C211.526 176.824 212.246 176.648 212.865 176.296C213.483 175.933 213.963 175.437 214.305 174.808C214.657 174.179 214.833 173.453 214.833 172.632C214.833 171.821 214.657 171.101 214.305 170.472C213.953 169.843 213.467 169.352 212.849 169C212.23 168.648 211.515 168.472 210.705 168.472H207.633V167.096H210.737C211.547 167.096 212.294 167.235 212.977 167.512C213.67 167.789 214.267 168.179 214.769 168.68C215.281 169.181 215.675 169.768 215.953 170.44C216.241 171.112 216.385 171.848 216.385 172.648C216.385 173.437 216.241 174.173 215.953 174.856C215.675 175.528 215.286 176.115 214.785 176.616C214.283 177.117 213.686 177.507 212.993 177.784C212.31 178.061 211.569 178.2 210.769 178.2H207.617ZM206.625 178.2V167.096H208.129V178.2H206.625ZM221.732 178.36C220.975 178.36 220.292 178.189 219.684 177.848C219.076 177.496 218.596 177.021 218.244 176.424C217.892 175.827 217.716 175.149 217.716 174.392C217.716 173.645 217.887 172.973 218.228 172.376C218.58 171.779 219.05 171.309 219.636 170.968C220.234 170.616 220.9 170.44 221.636 170.44C222.34 170.44 222.959 170.6 223.492 170.92C224.036 171.24 224.458 171.683 224.756 172.248C225.066 172.813 225.22 173.453 225.22 174.168C225.22 174.275 225.215 174.392 225.204 174.52C225.194 174.637 225.172 174.776 225.14 174.936H218.724V173.736H224.372L223.844 174.2C223.844 173.688 223.754 173.256 223.572 172.904C223.391 172.541 223.135 172.264 222.804 172.072C222.474 171.869 222.074 171.768 221.604 171.768C221.114 171.768 220.682 171.875 220.308 172.088C219.935 172.301 219.647 172.6 219.444 172.984C219.242 173.368 219.14 173.821 219.14 174.344C219.14 174.877 219.247 175.347 219.46 175.752C219.674 176.147 219.978 176.456 220.372 176.68C220.767 176.893 221.22 177 221.732 177C222.159 177 222.548 176.925 222.9 176.776C223.263 176.627 223.572 176.403 223.828 176.104L224.756 177.048C224.394 177.475 223.946 177.8 223.412 178.024C222.89 178.248 222.33 178.36 221.732 178.36ZM229.273 178.2L225.785 170.6H227.385L230.185 177.016H229.257L232.073 170.6H233.609L230.121 178.2H229.273ZM238.06 178.36C237.303 178.36 236.62 178.189 236.012 177.848C235.404 177.496 234.924 177.021 234.572 176.424C234.22 175.827 234.044 175.149 234.044 174.392C234.044 173.645 234.215 172.973 234.556 172.376C234.908 171.779 235.378 171.309 235.964 170.968C236.562 170.616 237.228 170.44 237.964 170.44C238.668 170.44 239.287 170.6 239.82 170.92C240.364 171.24 240.786 171.683 241.084 172.248C241.394 172.813 241.548 173.453 241.548 174.168C241.548 174.275 241.543 174.392 241.532 174.52C241.522 174.637 241.5 174.776 241.468 174.936H235.052V173.736H240.7L240.172 174.2C240.172 173.688 240.082 173.256 239.9 172.904C239.719 172.541 239.463 172.264 239.132 172.072C238.802 171.869 238.402 171.768 237.932 171.768C237.442 171.768 237.01 171.875 236.636 172.088C236.263 172.301 235.975 172.6 235.772 172.984C235.57 173.368 235.468 173.821 235.468 174.344C235.468 174.877 235.575 175.347 235.788 175.752C236.002 176.147 236.306 176.456 236.7 176.68C237.095 176.893 237.548 177 238.06 177C238.487 177 238.876 176.925 239.228 176.776C239.591 176.627 239.9 176.403 240.156 176.104L241.084 177.048C240.722 177.475 240.274 177.8 239.74 178.024C239.218 178.248 238.658 178.36 238.06 178.36ZM243.118 178.2V166.776H244.559V178.2H243.118ZM250.137 178.36C249.391 178.36 248.719 178.184 248.121 177.832C247.524 177.48 247.049 177.005 246.697 176.408C246.345 175.8 246.169 175.123 246.169 174.376C246.169 173.64 246.345 172.979 246.697 172.392C247.049 171.795 247.524 171.32 248.121 170.968C248.719 170.616 249.391 170.44 250.137 170.44C250.873 170.44 251.54 170.616 252.137 170.968C252.745 171.309 253.225 171.779 253.577 172.376C253.929 172.973 254.105 173.64 254.105 174.376C254.105 175.123 253.929 175.8 253.577 176.408C253.225 177.005 252.745 177.48 252.137 177.832C251.54 178.184 250.873 178.36 250.137 178.36ZM250.137 176.968C250.617 176.968 251.044 176.856 251.417 176.632C251.791 176.408 252.084 176.104 252.297 175.72C252.511 175.325 252.617 174.877 252.617 174.376C252.617 173.885 252.505 173.448 252.281 173.064C252.068 172.68 251.775 172.381 251.401 172.168C251.039 171.944 250.617 171.832 250.137 171.832C249.657 171.832 249.231 171.944 248.857 172.168C248.484 172.381 248.191 172.68 247.977 173.064C247.764 173.448 247.657 173.885 247.657 174.376C247.657 174.877 247.764 175.325 247.977 175.72C248.191 176.104 248.484 176.408 248.857 176.632C249.231 176.856 249.657 176.968 250.137 176.968ZM259.728 178.36C259.152 178.36 258.629 178.243 258.16 178.008C257.701 177.763 257.333 177.427 257.056 177C256.779 176.573 256.624 176.088 256.592 175.544V173.256C256.624 172.701 256.779 172.216 257.056 171.8C257.344 171.373 257.717 171.043 258.176 170.808C258.645 170.563 259.163 170.44 259.728 170.44C260.421 170.44 261.045 170.616 261.6 170.968C262.165 171.32 262.608 171.795 262.928 172.392C263.248 172.989 263.408 173.661 263.408 174.408C263.408 175.155 263.248 175.827 262.928 176.424C262.608 177.021 262.165 177.496 261.6 177.848C261.045 178.189 260.421 178.36 259.728 178.36ZM255.728 181.384V170.6H257.168V172.6L256.896 174.44L257.168 176.296V181.384H255.728ZM259.488 177C259.968 177 260.389 176.888 260.752 176.664C261.115 176.44 261.403 176.136 261.616 175.752C261.829 175.357 261.936 174.904 261.936 174.392C261.936 173.891 261.829 173.443 261.616 173.048C261.403 172.653 261.115 172.349 260.752 172.136C260.389 171.912 259.973 171.8 259.504 171.8C259.024 171.8 258.603 171.912 258.24 172.136C257.877 172.349 257.595 172.653 257.392 173.048C257.189 173.443 257.088 173.896 257.088 174.408C257.088 174.909 257.184 175.357 257.376 175.752C257.579 176.136 257.861 176.44 258.224 176.664C258.597 176.888 259.019 177 259.488 177ZM265.04 178.2V170.6H266.48V178.2H265.04ZM270.176 178.2V173.608C270.176 173.043 270 172.6 269.648 172.28C269.307 171.949 268.875 171.784 268.352 171.784C268 171.784 267.686 171.859 267.408 172.008C267.131 172.157 266.907 172.365 266.736 172.632C266.566 172.899 266.48 173.219 266.48 173.592L265.888 173.304C265.888 172.728 266.011 172.227 266.256 171.8C266.512 171.373 266.859 171.043 267.296 170.808C267.734 170.563 268.224 170.44 268.768 170.44C269.302 170.44 269.782 170.557 270.208 170.792C270.646 171.027 270.987 171.357 271.232 171.784C271.488 172.211 271.616 172.717 271.616 173.304V178.2H270.176ZM275.312 178.2V173.608C275.312 173.043 275.136 172.6 274.784 172.28C274.443 171.949 274.016 171.784 273.504 171.784C273.152 171.784 272.832 171.859 272.544 172.008C272.267 172.157 272.043 172.365 271.872 172.632C271.702 172.899 271.616 173.219 271.616 173.592L270.8 173.304C270.832 172.717 270.987 172.216 271.264 171.8C271.552 171.373 271.92 171.043 272.368 170.808C272.816 170.563 273.307 170.44 273.84 170.44C274.395 170.44 274.891 170.557 275.328 170.792C275.766 171.027 276.112 171.357 276.368 171.784C276.635 172.211 276.768 172.723 276.768 173.32V178.2H275.312ZM282.248 178.36C281.491 178.36 280.808 178.189 280.2 177.848C279.592 177.496 279.112 177.021 278.76 176.424C278.408 175.827 278.232 175.149 278.232 174.392C278.232 173.645 278.403 172.973 278.744 172.376C279.096 171.779 279.565 171.309 280.152 170.968C280.749 170.616 281.416 170.44 282.152 170.44C282.856 170.44 283.475 170.6 284.008 170.92C284.552 171.24 284.973 171.683 285.272 172.248C285.581 172.813 285.736 173.453 285.736 174.168C285.736 174.275 285.731 174.392 285.72 174.52C285.709 174.637 285.688 174.776 285.656 174.936H279.24V173.736H284.888L284.36 174.2C284.36 173.688 284.269 173.256 284.088 172.904C283.907 172.541 283.651 172.264 283.32 172.072C282.989 171.869 282.589 171.768 282.12 171.768C281.629 171.768 281.197 171.875 280.824 172.088C280.451 172.301 280.163 172.6 279.96 172.984C279.757 173.368 279.656 173.821 279.656 174.344C279.656 174.877 279.763 175.347 279.976 175.752C280.189 176.147 280.493 176.456 280.888 176.68C281.283 176.893 281.736 177 282.248 177C282.675 177 283.064 176.925 283.416 176.776C283.779 176.627 284.088 176.403 284.344 176.104L285.272 177.048C284.909 177.475 284.461 177.8 283.928 178.024C283.405 178.248 282.845 178.36 282.248 178.36ZM292.682 178.2V173.768C292.682 173.192 292.501 172.717 292.138 172.344C291.775 171.971 291.306 171.784 290.73 171.784C290.346 171.784 290.005 171.869 289.706 172.04C289.407 172.211 289.173 172.445 289.002 172.744C288.831 173.043 288.746 173.384 288.746 173.768L288.154 173.432C288.154 172.856 288.282 172.344 288.538 171.896C288.794 171.448 289.151 171.096 289.61 170.84C290.069 170.573 290.586 170.44 291.162 170.44C291.738 170.44 292.245 170.584 292.682 170.872C293.13 171.16 293.482 171.539 293.738 172.008C293.994 172.467 294.122 172.957 294.122 173.48V178.2H292.682ZM287.306 178.2V170.6H288.746V178.2H287.306ZM297.146 178.2V167.416H298.586V178.2H297.146ZM295.274 171.912V170.6H300.458V171.912H295.274ZM312.733 178.2L307.421 172.504C307.005 172.056 306.695 171.629 306.493 171.224C306.29 170.819 306.189 170.371 306.189 169.88C306.189 169.315 306.322 168.813 306.589 168.376C306.855 167.928 307.223 167.576 307.693 167.32C308.162 167.053 308.701 166.92 309.309 166.92C309.757 166.92 310.162 166.995 310.525 167.144C310.898 167.283 311.223 167.469 311.501 167.704C311.789 167.939 312.029 168.205 312.221 168.504L311.181 169.448C310.935 169.107 310.663 168.835 310.365 168.632C310.077 168.419 309.725 168.312 309.309 168.312C308.829 168.312 308.429 168.456 308.109 168.744C307.789 169.032 307.629 169.405 307.629 169.864C307.629 170.248 307.709 170.573 307.869 170.84C308.029 171.107 308.269 171.416 308.589 171.768L314.493 178.2H312.733ZM308.749 178.36C308.013 178.36 307.367 178.216 306.813 177.928C306.258 177.64 305.826 177.245 305.517 176.744C305.218 176.232 305.069 175.651 305.069 175C305.069 174.328 305.25 173.72 305.613 173.176C305.975 172.632 306.503 172.2 307.197 171.88L307.885 172.776C307.458 172.989 307.122 173.283 306.877 173.656C306.631 174.019 306.509 174.456 306.509 174.968C306.509 175.384 306.605 175.741 306.797 176.04C306.989 176.339 307.255 176.573 307.597 176.744C307.949 176.904 308.349 176.984 308.797 176.984C309.362 176.984 309.842 176.867 310.237 176.632C310.631 176.397 310.93 176.099 311.133 175.736L312.077 176.84C311.863 177.128 311.581 177.389 311.229 177.624C310.887 177.848 310.503 178.029 310.077 178.168C309.661 178.296 309.218 178.36 308.749 178.36ZM238.858 202.2V191.416H240.362V202.2H238.858ZM235.082 192.472V191.096H244.122V192.472H235.082ZM247.068 202.36C246.311 202.36 245.628 202.189 245.02 201.848C244.412 201.496 243.932 201.021 243.58 200.424C243.228 199.827 243.052 199.149 243.052 198.392C243.052 197.645 243.223 196.973 243.564 196.376C243.916 195.779 244.386 195.309 244.972 194.968C245.57 194.616 246.236 194.44 246.972 194.44C247.676 194.44 248.295 194.6 248.828 194.92C249.372 195.24 249.794 195.683 250.092 196.248C250.402 196.813 250.556 197.453 250.556 198.168C250.556 198.275 250.551 198.392 250.54 198.52C250.53 198.637 250.508 198.776 250.476 198.936H244.06V197.736H249.708L249.18 198.2C249.18 197.688 249.09 197.256 248.908 196.904C248.727 196.541 248.471 196.264 248.14 196.072C247.81 195.869 247.41 195.768 246.94 195.768C246.45 195.768 246.018 195.875 245.644 196.088C245.271 196.301 244.983 196.6 244.78 196.984C244.578 197.368 244.476 197.821 244.476 198.344C244.476 198.877 244.583 199.347 244.796 199.752C245.01 200.147 245.314 200.456 245.708 200.68C246.103 200.893 246.556 201 247.068 201C247.495 201 247.884 200.925 248.236 200.776C248.599 200.627 248.908 200.403 249.164 200.104L250.092 201.048C249.73 201.475 249.282 201.8 248.748 202.024C248.226 202.248 247.666 202.36 247.068 202.36ZM254.542 202.36C254.116 202.36 253.71 202.307 253.326 202.2C252.953 202.083 252.606 201.923 252.286 201.72C251.966 201.507 251.689 201.256 251.454 200.968L252.382 200.04C252.66 200.381 252.98 200.637 253.342 200.808C253.705 200.968 254.11 201.048 254.558 201.048C255.006 201.048 255.353 200.973 255.598 200.824C255.844 200.664 255.966 200.445 255.966 200.168C255.966 199.891 255.865 199.677 255.662 199.528C255.47 199.368 255.22 199.24 254.91 199.144C254.601 199.037 254.27 198.936 253.918 198.84C253.577 198.733 253.252 198.6 252.942 198.44C252.633 198.28 252.377 198.061 252.174 197.784C251.982 197.507 251.886 197.139 251.886 196.68C251.886 196.221 251.998 195.827 252.222 195.496C252.446 195.155 252.756 194.893 253.15 194.712C253.556 194.531 254.041 194.44 254.606 194.44C255.204 194.44 255.732 194.547 256.19 194.76C256.66 194.963 257.044 195.272 257.342 195.688L256.414 196.616C256.201 196.339 255.934 196.125 255.614 195.976C255.305 195.827 254.953 195.752 254.558 195.752C254.142 195.752 253.822 195.827 253.598 195.976C253.385 196.115 253.278 196.312 253.278 196.568C253.278 196.824 253.374 197.021 253.566 197.16C253.758 197.299 254.009 197.416 254.318 197.512C254.638 197.608 254.969 197.709 255.31 197.816C255.652 197.912 255.977 198.045 256.286 198.216C256.596 198.387 256.846 198.616 257.038 198.904C257.241 199.192 257.342 199.571 257.342 200.04C257.342 200.755 257.086 201.32 256.574 201.736C256.073 202.152 255.396 202.36 254.542 202.36ZM260.122 202.2V191.416H261.562V202.2H260.122ZM258.25 195.912V194.6H263.434V195.912H258.25ZM264.861 202.2V194.6H266.301V202.2H264.861ZM265.581 193.08C265.314 193.08 265.096 192.995 264.925 192.824C264.754 192.643 264.669 192.419 264.669 192.152C264.669 191.896 264.754 191.683 264.925 191.512C265.096 191.331 265.314 191.24 265.581 191.24C265.848 191.24 266.066 191.331 266.237 191.512C266.408 191.683 266.493 191.896 266.493 192.152C266.493 192.419 266.408 192.643 266.237 192.824C266.066 192.995 265.848 193.08 265.581 193.08ZM273.799 202.2V197.768C273.799 197.192 273.618 196.717 273.255 196.344C272.893 195.971 272.423 195.784 271.847 195.784C271.463 195.784 271.122 195.869 270.823 196.04C270.525 196.211 270.29 196.445 270.119 196.744C269.949 197.043 269.863 197.384 269.863 197.768L269.271 197.432C269.271 196.856 269.399 196.344 269.655 195.896C269.911 195.448 270.269 195.096 270.727 194.84C271.186 194.573 271.703 194.44 272.279 194.44C272.855 194.44 273.362 194.584 273.799 194.872C274.247 195.16 274.599 195.539 274.855 196.008C275.111 196.467 275.239 196.957 275.239 197.48V202.2H273.799ZM268.423 202.2V194.6H269.863V202.2H268.423ZM280.341 205.544C279.562 205.544 278.869 205.4 278.261 205.112C277.663 204.824 277.183 204.419 276.821 203.896L277.749 202.952C278.058 203.347 278.426 203.645 278.853 203.848C279.279 204.061 279.786 204.168 280.373 204.168C281.151 204.168 281.765 203.96 282.213 203.544C282.671 203.139 282.901 202.589 282.901 201.896V200.008L283.157 198.296L282.901 196.6V194.6H284.341V201.896C284.341 202.621 284.17 203.256 283.829 203.8C283.498 204.344 283.029 204.771 282.421 205.08C281.823 205.389 281.13 205.544 280.341 205.544ZM280.341 202.072C279.647 202.072 279.023 201.907 278.469 201.576C277.925 201.245 277.493 200.792 277.173 200.216C276.853 199.629 276.693 198.973 276.693 198.248C276.693 197.523 276.853 196.877 277.173 196.312C277.493 195.736 277.925 195.283 278.469 194.952C279.023 194.611 279.647 194.44 280.341 194.44C280.938 194.44 281.466 194.557 281.925 194.792C282.383 195.027 282.746 195.357 283.013 195.784C283.29 196.2 283.439 196.691 283.461 197.256V199.272C283.429 199.827 283.274 200.317 282.997 200.744C282.73 201.16 282.367 201.485 281.909 201.72C281.45 201.955 280.927 202.072 280.341 202.072ZM280.629 200.712C281.098 200.712 281.509 200.611 281.861 200.408C282.223 200.205 282.501 199.923 282.693 199.56C282.885 199.187 282.981 198.755 282.981 198.264C282.981 197.773 282.879 197.347 282.677 196.984C282.485 196.611 282.213 196.323 281.861 196.12C281.509 195.907 281.093 195.8 280.613 195.8C280.133 195.8 279.711 195.907 279.349 196.12C278.986 196.323 278.698 196.611 278.485 196.984C278.282 197.347 278.181 197.768 278.181 198.248C278.181 198.728 278.282 199.155 278.485 199.528C278.698 199.901 278.986 200.195 279.349 200.408C279.722 200.611 280.149 200.712 280.629 200.712Z" fill="black"/>
<rect x="232.5" y="232.7" width="55" height="55" rx="27.5" fill="#00C600"/>
<rect x="232.5" y="232.7" width="55" height="55" rx="27.5" fill="#002AD0"/>
<rect x="232.5" y="232.7" width="55" height="55" rx="27.5" fill="#00D6D6"/>
<rect x="232.5" y="232.7" width="55" height="55" rx="27.5" fill="#D8B700"/>
<g filter="url(#filter0_d_124_618)">
<rect x="232.5" y="232.7" width="55" height="55" rx="27.5" fill="#7219A3"/>
</g>
<defs>
<filter id="filter0_d_124_618" x="203.5" y="213.7" width="117" height="117" filterUnits="userSpaceOnUse" color-interpolation-filters="sRGB">
<feFlood flood-opacity="0" result="BackgroundImageFix"/>
<feColorMatrix in="SourceAlpha" type="matrix" values="0 0 0 0 0 0 0 0 0 0 0 0 0 0 0 0 0 0 127 0" result="hardAlpha"/>
<feMorphology radius="1" operator="dilate" in="SourceAlpha" result="effect1_dropShadow_124_618"/>
<feOffset dx="2" dy="12"/>
<feGaussianBlur stdDeviation="15"/>
<feComposite in2="hardAlpha" operator="out"/>
<feColorMatrix type="matrix" values="0 0 0 0 0.607843 0 0 0 0 0.00784314 0 0 0 0 0.517647 0 0 0 0.145 0"/>
<feBlend mode="normal" in2="BackgroundImageFix" result="effect1_dropShadow_124_618"/>
<feBlend mode="normal" in="SourceGraphic" in2="effect1_dropShadow_124_618" result="shape"/>
</filter>
</defs>
</svg>
