<svg width="50" height="50" viewBox="0 0 50 50" fill="none" xmlns="http://www.w3.org/2000/svg">
<rect width="50" height="50" rx="25" fill="url(#paint0_linear_124_875)"/>
<path d="M39.3443 33.6518L36.656 30.6807L34.6942 25.5798C34.6703 25.5173 34.6379 25.4596 34.5972 25.4064C34.5565 25.3534 34.5091 25.3071 34.455 25.2677C34.4008 25.2284 34.3424 25.1975 34.2793 25.1749C34.2162 25.1525 34.1514 25.1394 34.0845 25.136C29.751 24.8993 22.766 24.0086 21.2836 22.5268C21.2515 22.4938 21.2166 22.4641 21.1786 22.4378C21.1408 22.4116 21.1007 22.3896 21.0582 22.3713C21.016 22.3532 20.9724 22.3393 20.9273 22.3298C20.8821 22.3204 20.8366 22.3155 20.7905 22.315C20.7446 22.3146 20.6989 22.3188 20.6535 22.3275C20.6084 22.3362 20.5644 22.3493 20.5218 22.3667C20.4792 22.3842 20.4386 22.4056 20.4005 22.4311C20.3621 22.4566 20.3266 22.4857 20.294 22.5183C20.2614 22.5507 20.2324 22.5862 20.207 22.6246C20.1813 22.663 20.1599 22.7035 20.1425 22.7461C20.125 22.7887 20.1119 22.8325 20.1032 22.8779C20.0945 22.923 20.0905 22.9687 20.0908 23.0148C20.0912 23.0609 20.0962 23.1064 20.1057 23.1514C20.1152 23.1965 20.129 23.2403 20.1472 23.2826C20.1653 23.3248 20.1875 23.3649 20.2137 23.4029C20.2398 23.4407 20.2695 23.4757 20.3027 23.5077C21.7843 24.9901 22.6751 31.9751 22.9116 36.3088C22.9153 36.3755 22.9284 36.4405 22.9508 36.5036C22.9732 36.5665 23.004 36.6252 23.0436 36.6792C23.0829 36.7334 23.1292 36.7808 23.1823 36.8215C23.2353 36.8622 23.2932 36.8944 23.3557 36.9186L28.4564 38.8804L31.4277 41.5684C31.4603 41.598 31.4956 41.6242 31.5332 41.6471C31.571 41.6699 31.6105 41.689 31.6518 41.7044C31.6931 41.7197 31.7355 41.7309 31.7791 41.7382C31.8225 41.7453 31.8663 41.7484 31.9105 41.7473C31.9545 41.7463 31.9981 41.7409 32.0411 41.7314C32.0843 41.7222 32.126 41.7087 32.1665 41.6913C32.207 41.674 32.2456 41.6527 32.282 41.628C32.3185 41.6034 32.3524 41.5754 32.3835 41.5441L39.3206 34.607C39.3518 34.576 39.3796 34.542 39.4043 34.5056C39.429 34.4691 39.45 34.4305 39.4674 34.39C39.4848 34.3495 39.4981 34.3078 39.5075 34.2648C39.5168 34.2218 39.522 34.1782 39.5231 34.1342C39.5243 34.09 39.5212 34.0464 39.5139 34.0029C39.5065 33.9594 39.4954 33.917 39.4801 33.8757C39.4647 33.8344 39.4456 33.7951 39.4228 33.7573C39.3999 33.7197 39.3738 33.6846 39.3443 33.6518ZM22.9033 26.1057L26.5488 29.7511L26.5667 29.733C26.4946 29.875 26.4394 30.0233 26.4016 30.1778C26.3638 30.3325 26.3441 30.4895 26.3428 30.6487C26.3428 30.717 26.3461 30.7849 26.3528 30.8528C26.3594 30.9207 26.3694 30.988 26.3827 31.0547C26.396 31.1217 26.4126 31.1877 26.4323 31.2529C26.4521 31.3181 26.4751 31.3823 26.5011 31.4452C26.5272 31.5081 26.5563 31.5698 26.5885 31.6298C26.6206 31.69 26.6557 31.7482 26.6935 31.8049C26.7313 31.8616 26.7718 31.9164 26.8152 31.9691C26.8584 32.0218 26.9041 32.0721 26.9523 32.1203C27.0006 32.1686 27.0509 32.2143 27.1036 32.2575C27.1562 32.3007 27.211 32.3414 27.2677 32.3792C27.3243 32.417 27.3827 32.4521 27.4429 32.4841C27.5029 32.5164 27.5644 32.5455 27.6275 32.5715C27.6904 32.5976 27.7544 32.6205 27.8198 32.6402C27.885 32.6601 27.951 32.6767 28.0179 32.69C28.0847 32.7033 28.152 32.7131 28.2199 32.7199C28.2878 32.7266 28.3557 32.7299 28.4238 32.7299C28.4921 32.7299 28.56 32.7266 28.6279 32.7199C28.6956 32.7131 28.7631 32.7033 28.8299 32.69C28.8968 32.6767 28.9628 32.6601 29.028 32.6402C29.0932 32.6205 29.1572 32.5976 29.2203 32.5715C29.2832 32.5455 29.3447 32.5164 29.4049 32.4841C29.4651 32.4521 29.5233 32.417 29.58 32.3792C29.6368 32.3414 29.6913 32.3007 29.7442 32.2575C29.7969 32.2143 29.8472 32.1686 29.8954 32.1203C29.9437 32.0721 29.9894 32.0218 30.0326 31.9691C30.0758 31.9164 30.1163 31.8616 30.1543 31.8049C30.1921 31.7482 30.227 31.69 30.2592 31.6298C30.2915 31.5698 30.3204 31.5081 30.3466 31.4452C30.3727 31.3823 30.3956 31.3181 30.4153 31.2529C30.4352 31.1877 30.4518 31.1217 30.4651 31.0547C30.4784 30.988 30.4882 30.9207 30.495 30.8528C30.5017 30.7849 30.505 30.717 30.505 30.6487C30.505 30.5806 30.5017 30.5127 30.495 30.4448C30.4882 30.3769 30.4784 30.3096 30.4651 30.2428C30.4518 30.1759 30.4352 30.1099 30.4153 30.0447C30.3956 29.9795 30.3727 29.9153 30.3466 29.8524C30.3204 29.7893 30.2915 29.7278 30.2592 29.6678C30.227 29.6076 30.1921 29.5491 30.1543 29.4926C30.1163 29.4359 30.0758 29.3811 30.0326 29.3285C29.9894 29.2758 29.9437 29.2255 29.8954 29.1772C29.8472 29.129 29.7969 29.0833 29.7442 29.0401C29.6913 28.9969 29.6368 28.9562 29.58 28.9184C29.5233 28.8806 29.4651 28.8454 29.4049 28.8134C29.3447 28.7812 29.2832 28.7521 29.2203 28.726C29.1572 28.7 29.0932 28.677 29.028 28.6572C28.9628 28.6375 28.8968 28.6209 28.8299 28.6076C28.7631 28.5943 28.6956 28.5843 28.6279 28.5777C28.56 28.5709 28.4921 28.5677 28.4238 28.5677C28.2648 28.5686 28.108 28.5877 27.9535 28.6252C27.799 28.6626 27.6508 28.7172 27.5089 28.7889L27.5268 28.771L23.8814 25.1255C27.0683 25.8545 30.2934 26.3111 33.5573 26.4955L35.243 30.879L28.6528 37.4693L24.2706 35.7822C24.086 32.5183 23.629 29.2932 22.8999 26.1064L22.9033 26.1057ZM27.7301 30.6487C27.7301 30.6032 27.7346 30.558 27.7434 30.5135C27.7523 30.4687 27.7656 30.4253 27.783 30.3833C27.8003 30.3412 27.8217 30.3013 27.847 30.2635C27.8723 30.2255 27.901 30.1905 27.9332 30.1583C27.9655 30.1261 28.0006 30.0972 28.0384 30.0719C28.0764 30.0466 28.1163 30.0252 28.1584 30.0079C28.2004 29.9905 28.2438 29.9772 28.2886 29.9683C28.3331 29.9594 28.3783 29.955 28.4238 29.955C28.4693 29.955 28.5145 29.9594 28.5592 29.9683C28.6038 29.9772 28.6472 29.9905 28.6894 30.0079C28.7315 30.0252 28.7714 30.0466 28.8092 30.0719C28.8472 30.0972 28.8821 30.1261 28.9143 30.1583C28.9466 30.1905 28.9753 30.2255 29.0006 30.2635C29.026 30.3013 29.0472 30.3412 29.0648 30.3833C29.0822 30.4253 29.0953 30.4687 29.1042 30.5135C29.113 30.558 29.1177 30.6032 29.1177 30.6487C29.1177 30.6944 29.113 30.7393 29.1042 30.7841C29.0953 30.8289 29.0822 30.8721 29.0648 30.9143C29.0472 30.9564 29.026 30.9963 29.0006 31.0341C28.9753 31.0721 28.9466 31.107 28.9143 31.1392C28.8821 31.1714 28.8472 31.2002 28.8092 31.2257C28.7714 31.2509 28.7315 31.2723 28.6894 31.2897C28.6472 31.3071 28.6038 31.3202 28.5592 31.3292C28.5145 31.3381 28.4693 31.3426 28.4238 31.3426C28.3783 31.3426 28.3331 31.3381 28.2886 31.3292C28.2438 31.3202 28.2004 31.3071 28.1584 31.2897C28.1163 31.2723 28.0764 31.2509 28.0384 31.2257C28.0006 31.2002 27.9655 31.1714 27.9332 31.1392C27.901 31.107 27.8723 31.0721 27.847 31.0341C27.8217 30.9963 27.8003 30.9564 27.783 30.9143C27.7656 30.8721 27.7523 30.8289 27.7434 30.7841C27.7346 30.7393 27.7301 30.6944 27.7301 30.6487ZM31.868 40.0972L29.8322 38.2546L36.0297 32.0571L37.8721 34.0937L31.868 40.0972Z" fill="white"/>
<mask id="mask0_124_875" style="mask-type:luminance" maskUnits="userSpaceOnUse" x="9" y="11" width="27" height="27">
<path d="M9 11.2246H35.3704V37.5925H9V11.2246Z" fill="white"/>
</mask>
<g mask="url(#mask0_124_875)">
<path d="M17.815 32.2393C17.7828 32.2071 17.7477 32.1783 17.7099 32.1529C17.6721 32.1276 17.6319 32.1064 17.5899 32.0888C17.5478 32.0714 17.5044 32.0583 17.4599 32.0495C17.4151 32.0406 17.37 32.0361 17.3245 32.0361C17.2789 32.0361 17.2338 32.0406 17.1892 32.0495C17.1445 32.0583 17.1011 32.0714 17.059 32.0888C17.017 32.1064 16.977 32.1276 16.9392 32.1529C16.9012 32.1783 16.8663 32.2071 16.8341 32.2393L16.2297 32.8434C16.0943 32.6339 15.9662 32.4198 15.8461 32.2013C15.7259 31.9825 15.6136 31.7599 15.5095 31.5333C15.4053 31.3064 15.3092 31.0763 15.2216 30.8427C15.1339 30.6091 15.0548 30.3726 14.984 30.1334C14.9134 29.894 14.8513 29.6525 14.7978 29.4088C14.7446 29.165 14.7 28.9196 14.6644 28.6727C14.6287 28.4258 14.6019 28.1777 14.5839 27.9289C14.566 27.68 14.5571 27.4308 14.5571 27.1814C14.5571 26.9318 14.566 26.6826 14.5839 26.4337C14.6019 26.1849 14.6287 25.937 14.6644 25.6899C14.7 25.443 14.7446 25.1976 14.7978 24.954C14.8513 24.7101 14.9134 24.4686 14.984 24.2294C15.0548 23.99 15.1339 23.7535 15.2216 23.5199C15.3092 23.2863 15.4053 23.0562 15.5095 22.8295C15.6136 22.6027 15.7259 22.3801 15.8461 22.1615C15.9662 21.9428 16.0943 21.7287 16.2297 21.5194L16.832 22.1214C16.8642 22.1536 16.8993 22.1824 16.9371 22.2076C16.9749 22.2329 17.0149 22.2543 17.0571 22.2717C17.0992 22.2892 17.1424 22.3023 17.1871 22.3112C17.2319 22.3201 17.2768 22.3245 17.3223 22.3245C17.3681 22.3245 17.413 22.3201 17.4578 22.3112C17.5023 22.3023 17.5457 22.2892 17.5878 22.2717C17.63 22.2543 17.6699 22.2329 17.7078 22.2076C17.7456 22.1824 17.7807 22.1536 17.8129 22.1214L19.8941 20.0402C19.9261 20.0082 19.9551 19.9731 19.9803 19.9353C20.0056 19.8973 20.027 19.8573 20.0444 19.8153C20.0617 19.7732 20.0748 19.7298 20.0837 19.6851C20.0926 19.6405 20.097 19.5954 20.097 19.5498C20.097 19.5043 20.0926 19.4592 20.0837 19.4146C20.0748 19.3699 20.0617 19.3265 20.0444 19.2844C20.027 19.2424 20.0056 19.2024 19.9803 19.1644C19.9551 19.1266 19.9261 19.0915 19.8941 19.0593L19.2919 18.4572C19.5014 18.3216 19.7155 18.1937 19.934 18.0734C20.1526 17.9532 20.3754 17.8409 20.602 17.7368C20.8287 17.6324 21.0588 17.5365 21.2924 17.4488C21.5262 17.3612 21.7625 17.2819 22.0019 17.2111C22.2411 17.1405 22.4826 17.0784 22.7265 17.0251C22.9703 16.9717 23.2157 16.9272 23.4626 16.8915C23.7095 16.8558 23.9574 16.829 24.2064 16.811C24.4552 16.7931 24.7045 16.7842 24.9539 16.7842C25.2035 16.7842 25.4527 16.7931 25.7016 16.811C25.9504 16.829 26.1983 16.8558 26.4452 16.8915C26.6923 16.9272 26.9377 16.9717 27.1813 17.0251C27.4252 17.0784 27.6667 17.1405 27.9061 17.2111C28.1453 17.2819 28.3818 17.3612 28.6154 17.4488C28.849 17.5365 29.0791 17.6324 29.3057 17.7368C29.5326 17.8409 29.7552 17.9532 29.9738 18.0734C30.1925 18.1937 30.4064 18.3216 30.6159 18.4572L30.0118 19.0614C29.9796 19.0936 29.9508 19.1287 29.9255 19.1665C29.9003 19.2044 29.8789 19.2445 29.8615 19.2865C29.8439 19.3286 29.8308 19.372 29.822 19.4165C29.8131 19.4613 29.8086 19.5064 29.8086 19.552C29.8086 19.5975 29.8131 19.6426 29.822 19.6872C29.8308 19.7319 29.8439 19.7753 29.8615 19.8174C29.8789 19.8594 29.9003 19.8994 29.9255 19.9372C29.9508 19.9752 29.9796 20.0101 30.0118 20.0423L32.093 22.1235C32.1252 22.1557 32.1601 22.1845 32.1979 22.2098C32.2359 22.235 32.2758 22.2564 32.3179 22.2738C32.36 22.2912 32.4034 22.3045 32.4481 22.3133C32.4927 22.3222 32.5378 22.3267 32.5833 22.3267C32.6289 22.3267 32.674 22.3222 32.7188 22.3133C32.7633 22.3045 32.8067 22.2912 32.8488 22.2738C32.8908 22.2564 32.9307 22.235 32.9688 22.2098C33.0066 22.1845 33.0417 22.1557 33.0739 22.1235L35.1549 20.0423C35.1871 20.0101 35.2159 19.9752 35.2411 19.9372C35.2664 19.8994 35.2878 19.8594 35.3052 19.8174C35.3227 19.7753 35.3358 19.7319 35.3447 19.6872C35.3536 19.6426 35.358 19.5975 35.358 19.552C35.358 19.5064 35.3536 19.4613 35.3447 19.4165C35.3358 19.372 35.3227 19.3286 35.3052 19.2865C35.2878 19.2445 35.2664 19.2044 35.2411 19.1665C35.2159 19.1287 35.1871 19.0936 35.1549 19.0614L33.0739 16.9804C33.0417 16.9482 33.0066 16.9194 32.9688 16.8942C32.9307 16.8687 32.8908 16.8475 32.8488 16.8299C32.8067 16.8126 32.7633 16.7995 32.7188 16.7906C32.674 16.7817 32.6289 16.7773 32.5833 16.7773C32.5378 16.7773 32.4927 16.7817 32.4481 16.7906C32.4034 16.7995 32.36 16.8126 32.3179 16.8299C32.2758 16.8475 32.2359 16.8687 32.1979 16.8942C32.1601 16.9194 32.1252 16.9482 32.093 16.9804L31.6073 17.4659C31.434 17.3469 31.2577 17.2327 31.0781 17.1233C30.8987 17.0138 30.7166 16.909 30.5316 16.8093C30.3466 16.7096 30.1591 16.6147 29.9689 16.525C29.7789 16.4353 29.5866 16.3506 29.392 16.2711C29.1975 16.1916 29.001 16.1174 28.8023 16.0483C28.6038 15.9792 28.4035 15.9156 28.2016 15.8573C27.9996 15.7991 27.7963 15.746 27.5914 15.6986C27.3868 15.6511 27.1807 15.6093 26.9738 15.5728C26.7668 15.5363 26.559 15.5055 26.3503 15.48C26.1416 15.4547 25.9325 15.4349 25.7228 15.4208C25.5129 15.4065 25.303 15.398 25.093 15.3949C24.8827 15.392 24.6726 15.3947 24.4626 15.4029C24.2525 15.4111 24.0428 15.425 23.8335 15.4445C23.6242 15.4638 23.4157 15.4889 23.2078 15.5196C22.9998 15.55 22.7928 15.5861 22.5866 15.6278C22.3806 15.6694 22.1759 15.7165 21.9724 15.7692L23.8781 13.9391C24.0029 13.9775 24.1308 13.9978 24.2616 13.9995C24.3071 13.9995 24.3524 13.9972 24.3976 13.9927C24.4429 13.9883 24.4877 13.9817 24.5322 13.9729C24.5768 13.964 24.6209 13.953 24.6644 13.9397C24.7078 13.9266 24.7506 13.9113 24.7926 13.8938C24.8345 13.8764 24.8756 13.8571 24.9157 13.8357C24.9556 13.8143 24.9946 13.791 25.0324 13.7657C25.0702 13.7404 25.1067 13.7134 25.1418 13.6845C25.1769 13.6557 25.2105 13.6253 25.2427 13.5931C25.2749 13.561 25.3054 13.5273 25.3341 13.4922C25.3628 13.4571 25.39 13.4206 25.4151 13.3828C25.4404 13.3452 25.4637 13.3062 25.4851 13.2661C25.5066 13.226 25.526 13.1851 25.5434 13.143C25.5608 13.101 25.576 13.0583 25.5893 13.0147C25.6024 12.9713 25.6134 12.9273 25.6223 12.8828C25.6312 12.8382 25.6379 12.7933 25.6424 12.748C25.6468 12.7028 25.6491 12.6575 25.6491 12.612C25.6491 12.5666 25.6468 12.5213 25.6424 12.4762C25.6379 12.4308 25.6312 12.3859 25.6223 12.3413C25.6134 12.2968 25.6024 12.2528 25.5893 12.2094C25.576 12.1658 25.5608 12.1231 25.5434 12.0811C25.526 12.039 25.5066 11.9981 25.4851 11.958C25.4637 11.9179 25.4404 11.8789 25.4151 11.8413C25.39 11.8035 25.3628 11.767 25.3341 11.7319C25.3054 11.6968 25.2749 11.6631 25.2427 11.6311C25.2105 11.5988 25.1769 11.5684 25.1418 11.5396C25.1067 11.5107 25.0702 11.4837 25.0324 11.4584C24.9946 11.4331 24.9556 11.4098 24.9157 11.3884C24.8756 11.367 24.8345 11.3477 24.7926 11.3303C24.7506 11.3128 24.7078 11.2975 24.6644 11.2844C24.6209 11.2711 24.5768 11.2601 24.5322 11.2512C24.4877 11.2424 24.4429 11.2358 24.3976 11.2314C24.3524 11.2269 24.3071 11.2246 24.2616 11.2246C24.2162 11.2246 24.1709 11.2269 24.1256 11.2314C24.0804 11.2358 24.0355 11.2424 23.9909 11.2512C23.9464 11.2601 23.9024 11.2711 23.8588 11.2844C23.8154 11.2975 23.7726 11.3128 23.7307 11.3303C23.6887 11.3477 23.6476 11.367 23.6076 11.3884C23.5675 11.4098 23.5285 11.4331 23.4907 11.4584C23.4529 11.4837 23.4165 11.5107 23.3814 11.5396C23.3463 11.5684 23.3127 11.5988 23.2805 11.6311C23.2485 11.6631 23.218 11.6968 23.189 11.7319C23.1603 11.767 23.1333 11.8035 23.108 11.8413C23.0828 11.8789 23.0594 11.9179 23.038 11.958C23.0166 11.9981 22.9971 12.039 22.9797 12.0811C22.9624 12.1231 22.9471 12.1658 22.934 12.2094C22.9207 12.2528 22.9097 12.2968 22.9008 12.3413C22.892 12.3859 22.8854 12.4308 22.8808 12.4762C22.8764 12.5213 22.8742 12.5666 22.8742 12.612C22.8754 12.7235 22.89 12.833 22.9178 12.9409L18.2554 17.4181L17.815 16.9775C17.7828 16.9453 17.7477 16.9165 17.7099 16.8913C17.6721 16.866 17.6319 16.8446 17.5899 16.8272C17.5478 16.8099 17.5044 16.7968 17.4599 16.7877C17.4151 16.7788 17.37 16.7744 17.3245 16.7744C17.2789 16.7744 17.2338 16.7788 17.1892 16.7877C17.1445 16.7968 17.1011 16.8099 17.059 16.8272C17.017 16.8446 16.977 16.866 16.9392 16.8913C16.9012 16.9165 16.8663 16.9453 16.8341 16.9775L14.7529 19.0587C14.7207 19.0909 14.6919 19.1258 14.6667 19.1638C14.6414 19.2017 14.62 19.2416 14.6026 19.2836C14.5853 19.3259 14.572 19.3691 14.5631 19.4138C14.5542 19.4584 14.5498 19.5035 14.5498 19.5491C14.5498 19.5946 14.5542 19.6397 14.5631 19.6845C14.572 19.729 14.5853 19.7724 14.6026 19.8145C14.62 19.8566 14.6414 19.8967 14.6667 19.9345C14.6919 19.9723 14.7207 20.0074 14.7529 20.0396L15.1935 20.48L10.7162 25.1424C10.6084 25.1147 10.4988 25.1 10.3873 25.0988C10.342 25.0988 10.2967 25.101 10.2514 25.1056C10.2062 25.11 10.1613 25.1166 10.1167 25.1255C10.0721 25.1343 10.0282 25.1453 9.98476 25.1586C9.94117 25.1718 9.89853 25.187 9.85648 25.2044C9.81443 25.2219 9.77353 25.2412 9.73341 25.2626C9.69329 25.284 9.65432 25.3074 9.61671 25.3326C9.5789 25.3579 9.54244 25.3849 9.50733 25.4138C9.47203 25.4426 9.43846 25.4731 9.40644 25.5053C9.37423 25.5373 9.34375 25.5709 9.31501 25.6062C9.28607 25.6413 9.25907 25.6777 9.2338 25.7154C9.20853 25.7532 9.18519 25.7921 9.16377 25.8322C9.14236 25.8724 9.12307 25.9133 9.10552 25.9553C9.08816 25.9974 9.07292 26.04 9.0598 26.0834C9.04649 26.127 9.03549 26.171 9.02662 26.2155C9.01775 26.2601 9.01119 26.305 9.00675 26.3502C9.00231 26.3955 9 26.4409 9 26.4862C9 26.5317 9.00231 26.577 9.00675 26.6222C9.01119 26.6675 9.01775 26.7123 9.02662 26.7568C9.03549 26.8016 9.04649 26.8456 9.0598 26.889C9.07292 26.9326 9.08816 26.9752 9.10552 27.0172C9.12307 27.0591 9.14236 27.1002 9.16377 27.1403C9.18519 27.1802 9.20853 27.2192 9.2338 27.257C9.25907 27.2948 9.28607 27.3313 9.31501 27.3664C9.34375 27.4015 9.37423 27.4353 9.40644 27.4673C9.43846 27.4995 9.47203 27.53 9.50733 27.5587C9.54244 27.5877 9.5789 27.6147 9.61671 27.6399C9.65432 27.665 9.69329 27.6883 9.73341 27.7098C9.77353 27.7312 9.81443 27.7507 9.85648 27.768C9.89853 27.7854 9.94117 27.8008 9.98476 27.8139C10.0282 27.827 10.0721 27.8382 10.1167 27.8469C10.1613 27.8558 10.2062 27.8625 10.2514 27.867C10.2967 27.8714 10.342 27.8737 10.3873 27.8737C10.4329 27.8737 10.4782 27.8714 10.5233 27.867C10.5687 27.8625 10.6136 27.8558 10.6582 27.8469C10.7027 27.8382 10.7467 27.827 10.7901 27.8139C10.8337 27.8008 10.8764 27.7854 10.9184 27.768C10.9603 27.7507 11.0014 27.7312 11.0415 27.7098C11.0816 27.6883 11.1204 27.665 11.1582 27.6399C11.196 27.6147 11.2324 27.5877 11.2676 27.5587C11.3027 27.53 11.3364 27.4995 11.3684 27.4673C11.4007 27.4353 11.4311 27.4015 11.4599 27.3664C11.4888 27.3313 11.5158 27.2948 11.5411 27.257C11.5662 27.2192 11.5895 27.1802 11.6109 27.1403C11.6325 27.1002 11.6518 27.0591 11.6692 27.0172C11.6865 26.9752 11.702 26.9326 11.7151 26.889C11.7282 26.8456 11.7394 26.8016 11.7483 26.7568C11.7571 26.7123 11.7637 26.6675 11.7681 26.6222C11.7726 26.577 11.7749 26.5317 11.7749 26.4862C11.773 26.3566 11.7531 26.2294 11.7151 26.1054L13.5446 24.197C13.4919 24.4005 13.445 24.6054 13.4034 24.8114C13.3619 25.0176 13.3258 25.2246 13.2953 25.4326C13.2647 25.6405 13.2398 25.8492 13.2203 26.0585C13.201 26.268 13.1873 26.4777 13.179 26.6878C13.1709 26.8978 13.1682 27.1079 13.1713 27.3182C13.1744 27.5282 13.1829 27.7383 13.1971 27.948C13.2114 28.1579 13.2313 28.367 13.2566 28.5757C13.282 28.7844 13.3131 28.9922 13.3495 29.1993C13.386 29.4063 13.428 29.6123 13.4755 29.817C13.523 30.0219 13.576 30.2252 13.6343 30.4272C13.6927 30.6291 13.7564 30.8294 13.8254 31.028C13.8943 31.2265 13.9688 31.4231 14.0482 31.6177C14.1277 31.8124 14.2124 32.0047 14.3023 32.1947C14.392 32.3849 14.4869 32.5724 14.5866 32.7574C14.6863 32.9424 14.7911 33.1247 14.9007 33.3041C15.0102 33.4837 15.1244 33.66 15.2434 33.8334L14.7577 34.3189C14.7255 34.3512 14.6968 34.3861 14.6715 34.4241C14.6462 34.4619 14.6248 34.5018 14.6074 34.5439C14.5901 34.5861 14.577 34.6293 14.5681 34.6741C14.559 34.7188 14.5546 34.7638 14.5546 34.8093C14.5546 34.8548 14.559 34.9 14.5681 34.9447C14.577 34.9893 14.5901 35.0327 14.6074 35.0747C14.6248 35.1168 14.6462 35.1569 14.6715 35.1947C14.6968 35.2325 14.7255 35.2676 14.7577 35.2998L16.8389 37.3809C16.8711 37.4131 16.9062 37.4418 16.9441 37.4673C16.9819 37.4925 17.0218 37.5138 17.064 37.5313C17.1061 37.5487 17.1493 37.5618 17.1941 37.5707C17.2388 37.5795 17.2838 37.584 17.3293 37.584C17.375 37.584 17.4199 37.5795 17.4647 37.5707C17.5093 37.5618 17.5527 37.5487 17.5947 37.5313C17.637 37.5138 17.6769 37.4925 17.7147 37.4673C17.7525 37.4418 17.7876 37.4131 17.8198 37.3809L19.901 35.2998C19.9331 35.2676 19.9618 35.2325 19.9873 35.1947C20.0125 35.1569 20.0338 35.1168 20.0513 35.0747C20.0687 35.0327 20.0818 34.9893 20.0907 34.9447C20.0995 34.9 20.104 34.8548 20.104 34.8093C20.104 34.7638 20.0995 34.7188 20.0907 34.6741C20.0818 34.6293 20.0687 34.5861 20.0513 34.5439C20.0338 34.5018 20.0125 34.4619 19.9873 34.4241C19.9618 34.3861 19.9331 34.3512 19.901 34.3189L17.815 32.2393ZM33.6863 19.5491L32.586 20.6494L31.4859 19.5491L32.586 18.449L33.6863 19.5491ZM17.3245 18.449L18.4248 19.5491L17.3245 20.6494L16.2243 19.5491L17.3245 18.449ZM17.3245 35.911L16.2243 34.8108L17.3245 33.7105L18.4248 34.8108L17.3245 35.911Z" fill="white"/>
</g>
<defs>
<linearGradient id="paint0_linear_124_875" x1="25" y1="0" x2="25" y2="50" gradientUnits="userSpaceOnUse">
<stop stop-color="#01CFFF" stop-opacity="0"/>
<stop offset="1" stop-color="#7219A3"/>
</linearGradient>
</defs>
</svg>
