<svg width="522" height="749" viewBox="0 0 522 749" fill="none" xmlns="http://www.w3.org/2000/svg">
<path d="M521.104 488.201C521.104 344.549 404.652 228.097 261 228.097C117.348 228.097 0.895874 344.549 0.895874 488.201C0.895874 631.853 117.348 748.305 261 748.305C404.652 748.305 521.104 631.853 521.104 488.201Z" fill="url(#paint0_linear_82_3)" fill-opacity="0.2" stroke="url(#paint1_linear_82_3)" stroke-opacity="0.7"/>
<path d="M456.079 488.201C456.079 380.463 368.739 293.123 261.001 293.123C153.263 293.123 65.9234 380.463 65.9234 488.201C65.9234 595.939 153.263 683.279 261.001 683.279C368.739 683.279 456.079 595.939 456.079 488.201Z" fill="url(#paint2_linear_82_3)" fill-opacity="0.2" stroke="url(#paint3_linear_82_3)" stroke-opacity="0.7"/>
<path d="M130.946 488.201C130.946 560.027 189.172 618.253 260.998 618.253C332.824 618.253 391.05 560.027 391.05 488.201C391.05 416.375 332.824 358.149 260.998 358.149C189.172 358.149 130.946 416.375 130.946 488.201Z" fill="url(#paint4_linear_82_3)" fill-opacity="0.2" stroke="url(#paint5_linear_82_3)" stroke-opacity="0.7"/>
<mask id="path-4-inside-1_82_3" fill="white">
<path d="M1 488.2C1 344.606 117.406 228.2 261 228.2C404.594 228.2 521 344.606 521 488.2C521 631.794 404.594 748.2 261 748.2C117.406 748.2 1 631.794 1 488.2Z"/>
</mask>
<g clip-path="url(#paint6_diamond_82_3_clip_path)" data-figma-skip-parse="true" mask="url(#path-4-inside-1_82_3)"><g transform="matrix(0.26 0 0 0.26 521 488.2)"><rect x="0" y="0" width="2011.54" height="1011.54" fill="url(#paint6_diamond_82_3)" opacity="1" shape-rendering="crispEdges"/><rect x="0" y="0" width="2011.54" height="1011.54" transform="scale(1 -1)" fill="url(#paint6_diamond_82_3)" opacity="1" shape-rendering="crispEdges"/><rect x="0" y="0" width="2011.54" height="1011.54" transform="scale(-1 1)" fill="url(#paint6_diamond_82_3)" opacity="1" shape-rendering="crispEdges"/><rect x="0" y="0" width="2011.54" height="1011.54" transform="scale(-1)" fill="url(#paint6_diamond_82_3)" opacity="1" shape-rendering="crispEdges"/></g></g><path d="M261 748.2V745.2C119.063 745.2 4 630.137 4 488.2H1H-2C-2 633.451 115.749 751.2 261 751.2V748.2ZM521 488.2H518C518 630.137 402.937 745.2 261 745.2V748.2V751.2C406.251 751.2 524 633.451 524 488.2H521ZM261 228.2V231.2C402.937 231.2 518 346.263 518 488.2H521H524C524 342.949 406.251 225.2 261 225.2V228.2ZM261 228.2V225.2C115.749 225.2 -2 342.949 -2 488.2H1H4C4 346.263 119.063 231.2 261 231.2V228.2Z" data-figma-gradient-fill="{&#34;type&#34;:&#34;GRADIENT_DIAMOND&#34;,&#34;stops&#34;:[{&#34;color&#34;:{&#34;r&#34;:0.0,&#34;g&#34;:0.0,&#34;b&#34;:0.0,&#34;a&#34;:0.0},&#34;position&#34;:0.99999988079071045},{&#34;color&#34;:{&#34;r&#34;:0.80000001192092896,&#34;g&#34;:0.80000001192092896,&#34;b&#34;:0.80000001192092896,&#34;a&#34;:1.0},&#34;position&#34;:1.0}],&#34;stopsVar&#34;:[{&#34;color&#34;:{&#34;r&#34;:0.0,&#34;g&#34;:0.0,&#34;b&#34;:0.0,&#34;a&#34;:0.0},&#34;position&#34;:0.99999988079071045},{&#34;color&#34;:{&#34;r&#34;:0.80000001192092896,&#34;g&#34;:0.80000001192092896,&#34;b&#34;:0.80000001192092896,&#34;a&#34;:1.0},&#34;position&#34;:1.0}],&#34;transform&#34;:{&#34;m00&#34;:520.0,&#34;m01&#34;:0.0,&#34;m02&#34;:261.0,&#34;m10&#34;:0.0,&#34;m11&#34;:520.0,&#34;m12&#34;:228.1999511718750},&#34;opacity&#34;:1.0,&#34;blendMode&#34;:&#34;NORMAL&#34;,&#34;visible&#34;:true}" mask="url(#path-4-inside-1_82_3)"/>
<rect x="15.34" y="612.71" width="30" height="30" rx="15" transform="rotate(-30 15.34 612.71)" fill="url(#paint7_linear_82_3)"/>
<rect x="77.15" y="283.14" width="30" height="30" rx="15" transform="rotate(45 77.15 283.14)" fill="url(#paint8_linear_82_3)"/>
<rect x="411.49" y="257.55" width="30" height="30" rx="15" transform="rotate(120 411.49 257.55)" fill="url(#paint9_linear_82_3)"/>
<rect x="293.98" y="69.6299" width="30" height="30" rx="15" transform="rotate(-100 293.98 69.6299)" fill="url(#paint10_linear_82_3)"/>
<rect x="385.51" y="41.8599" width="30" height="30" rx="15" transform="rotate(-120 385.51 41.8599)" fill="url(#paint11_linear_82_3)"/>
<path d="M208.617 406.2V404.824H211.705C212.526 404.824 213.246 404.648 213.865 404.296C214.483 403.933 214.963 403.437 215.305 402.808C215.657 402.179 215.833 401.453 215.833 400.632C215.833 399.821 215.657 399.101 215.305 398.472C214.953 397.843 214.467 397.352 213.849 397C213.23 396.648 212.515 396.472 211.705 396.472H208.633V395.096H211.737C212.547 395.096 213.294 395.235 213.977 395.512C214.67 395.789 215.267 396.179 215.769 396.68C216.281 397.181 216.675 397.768 216.953 398.44C217.241 399.112 217.385 399.848 217.385 400.648C217.385 401.437 217.241 402.173 216.953 402.856C216.675 403.528 216.286 404.115 215.785 404.616C215.283 405.117 214.686 405.507 213.993 405.784C213.31 406.061 212.569 406.2 211.769 406.2H208.617ZM207.625 406.2V395.096H209.129V406.2H207.625ZM222.732 406.36C221.975 406.36 221.292 406.189 220.684 405.848C220.076 405.496 219.596 405.021 219.244 404.424C218.892 403.827 218.716 403.149 218.716 402.392C218.716 401.645 218.887 400.973 219.228 400.376C219.58 399.779 220.05 399.309 220.636 398.968C221.234 398.616 221.9 398.44 222.636 398.44C223.34 398.44 223.959 398.6 224.492 398.92C225.036 399.24 225.458 399.683 225.756 400.248C226.066 400.813 226.22 401.453 226.22 402.168C226.22 402.275 226.215 402.392 226.204 402.52C226.194 402.637 226.172 402.776 226.14 402.936H219.724V401.736H225.372L224.844 402.2C224.844 401.688 224.754 401.256 224.572 400.904C224.391 400.541 224.135 400.264 223.804 400.072C223.474 399.869 223.074 399.768 222.604 399.768C222.114 399.768 221.682 399.875 221.308 400.088C220.935 400.301 220.647 400.6 220.444 400.984C220.242 401.368 220.14 401.821 220.14 402.344C220.14 402.877 220.247 403.347 220.46 403.752C220.674 404.147 220.978 404.456 221.372 404.68C221.767 404.893 222.22 405 222.732 405C223.159 405 223.548 404.925 223.9 404.776C224.263 404.627 224.572 404.403 224.828 404.104L225.756 405.048C225.394 405.475 224.946 405.8 224.412 406.024C223.89 406.248 223.33 406.36 222.732 406.36ZM230.273 406.2L226.785 398.6H228.385L231.185 405.016H230.257L233.073 398.6H234.609L231.121 406.2H230.273ZM239.06 406.36C238.303 406.36 237.62 406.189 237.012 405.848C236.404 405.496 235.924 405.021 235.572 404.424C235.22 403.827 235.044 403.149 235.044 402.392C235.044 401.645 235.215 400.973 235.556 400.376C235.908 399.779 236.378 399.309 236.964 398.968C237.562 398.616 238.228 398.44 238.964 398.44C239.668 398.44 240.287 398.6 240.82 398.92C241.364 399.24 241.786 399.683 242.084 400.248C242.394 400.813 242.548 401.453 242.548 402.168C242.548 402.275 242.543 402.392 242.532 402.52C242.522 402.637 242.5 402.776 242.468 402.936H236.052V401.736H241.7L241.172 402.2C241.172 401.688 241.082 401.256 240.9 400.904C240.719 400.541 240.463 400.264 240.132 400.072C239.802 399.869 239.402 399.768 238.932 399.768C238.442 399.768 238.01 399.875 237.636 400.088C237.263 400.301 236.975 400.6 236.772 400.984C236.57 401.368 236.468 401.821 236.468 402.344C236.468 402.877 236.575 403.347 236.788 403.752C237.002 404.147 237.306 404.456 237.7 404.68C238.095 404.893 238.548 405 239.06 405C239.487 405 239.876 404.925 240.228 404.776C240.591 404.627 240.9 404.403 241.156 404.104L242.084 405.048C241.722 405.475 241.274 405.8 240.74 406.024C240.218 406.248 239.658 406.36 239.06 406.36ZM244.118 406.2V394.776H245.559V406.2H244.118ZM251.137 406.36C250.391 406.36 249.719 406.184 249.121 405.832C248.524 405.48 248.049 405.005 247.697 404.408C247.345 403.8 247.169 403.123 247.169 402.376C247.169 401.64 247.345 400.979 247.697 400.392C248.049 399.795 248.524 399.32 249.121 398.968C249.719 398.616 250.391 398.44 251.137 398.44C251.873 398.44 252.54 398.616 253.137 398.968C253.745 399.309 254.225 399.779 254.577 400.376C254.929 400.973 255.105 401.64 255.105 402.376C255.105 403.123 254.929 403.8 254.577 404.408C254.225 405.005 253.745 405.48 253.137 405.832C252.54 406.184 251.873 406.36 251.137 406.36ZM251.137 404.968C251.617 404.968 252.044 404.856 252.417 404.632C252.791 404.408 253.084 404.104 253.297 403.72C253.511 403.325 253.617 402.877 253.617 402.376C253.617 401.885 253.505 401.448 253.281 401.064C253.068 400.68 252.775 400.381 252.401 400.168C252.039 399.944 251.617 399.832 251.137 399.832C250.657 399.832 250.231 399.944 249.857 400.168C249.484 400.381 249.191 400.68 248.977 401.064C248.764 401.448 248.657 401.885 248.657 402.376C248.657 402.877 248.764 403.325 248.977 403.72C249.191 404.104 249.484 404.408 249.857 404.632C250.231 404.856 250.657 404.968 251.137 404.968ZM260.728 406.36C260.152 406.36 259.629 406.243 259.16 406.008C258.701 405.763 258.333 405.427 258.056 405C257.779 404.573 257.624 404.088 257.592 403.544V401.256C257.624 400.701 257.779 400.216 258.056 399.8C258.344 399.373 258.717 399.043 259.176 398.808C259.645 398.563 260.163 398.44 260.728 398.44C261.421 398.44 262.045 398.616 262.6 398.968C263.165 399.32 263.608 399.795 263.928 400.392C264.248 400.989 264.408 401.661 264.408 402.408C264.408 403.155 264.248 403.827 263.928 404.424C263.608 405.021 263.165 405.496 262.6 405.848C262.045 406.189 261.421 406.36 260.728 406.36ZM256.728 409.384V398.6H258.168V400.6L257.896 402.44L258.168 404.296V409.384H256.728ZM260.488 405C260.968 405 261.389 404.888 261.752 404.664C262.115 404.44 262.403 404.136 262.616 403.752C262.829 403.357 262.936 402.904 262.936 402.392C262.936 401.891 262.829 401.443 262.616 401.048C262.403 400.653 262.115 400.349 261.752 400.136C261.389 399.912 260.973 399.8 260.504 399.8C260.024 399.8 259.603 399.912 259.24 400.136C258.877 400.349 258.595 400.653 258.392 401.048C258.189 401.443 258.088 401.896 258.088 402.408C258.088 402.909 258.184 403.357 258.376 403.752C258.579 404.136 258.861 404.44 259.224 404.664C259.597 404.888 260.019 405 260.488 405ZM266.04 406.2V398.6H267.48V406.2H266.04ZM271.176 406.2V401.608C271.176 401.043 271 400.6 270.648 400.28C270.307 399.949 269.875 399.784 269.352 399.784C269 399.784 268.686 399.859 268.408 400.008C268.131 400.157 267.907 400.365 267.736 400.632C267.566 400.899 267.48 401.219 267.48 401.592L266.888 401.304C266.888 400.728 267.011 400.227 267.256 399.8C267.512 399.373 267.859 399.043 268.296 398.808C268.734 398.563 269.224 398.44 269.768 398.44C270.302 398.44 270.782 398.557 271.208 398.792C271.646 399.027 271.987 399.357 272.232 399.784C272.488 400.211 272.616 400.717 272.616 401.304V406.2H271.176ZM276.312 406.2V401.608C276.312 401.043 276.136 400.6 275.784 400.28C275.443 399.949 275.016 399.784 274.504 399.784C274.152 399.784 273.832 399.859 273.544 400.008C273.267 400.157 273.043 400.365 272.872 400.632C272.702 400.899 272.616 401.219 272.616 401.592L271.8 401.304C271.832 400.717 271.987 400.216 272.264 399.8C272.552 399.373 272.92 399.043 273.368 398.808C273.816 398.563 274.307 398.44 274.84 398.44C275.395 398.44 275.891 398.557 276.328 398.792C276.766 399.027 277.112 399.357 277.368 399.784C277.635 400.211 277.768 400.723 277.768 401.32V406.2H276.312ZM283.248 406.36C282.491 406.36 281.808 406.189 281.2 405.848C280.592 405.496 280.112 405.021 279.76 404.424C279.408 403.827 279.232 403.149 279.232 402.392C279.232 401.645 279.403 400.973 279.744 400.376C280.096 399.779 280.565 399.309 281.152 398.968C281.749 398.616 282.416 398.44 283.152 398.44C283.856 398.44 284.475 398.6 285.008 398.92C285.552 399.24 285.973 399.683 286.272 400.248C286.581 400.813 286.736 401.453 286.736 402.168C286.736 402.275 286.731 402.392 286.72 402.52C286.709 402.637 286.688 402.776 286.656 402.936H280.24V401.736H285.888L285.36 402.2C285.36 401.688 285.269 401.256 285.088 400.904C284.907 400.541 284.651 400.264 284.32 400.072C283.989 399.869 283.589 399.768 283.12 399.768C282.629 399.768 282.197 399.875 281.824 400.088C281.451 400.301 281.163 400.6 280.96 400.984C280.757 401.368 280.656 401.821 280.656 402.344C280.656 402.877 280.763 403.347 280.976 403.752C281.189 404.147 281.493 404.456 281.888 404.68C282.283 404.893 282.736 405 283.248 405C283.675 405 284.064 404.925 284.416 404.776C284.779 404.627 285.088 404.403 285.344 404.104L286.272 405.048C285.909 405.475 285.461 405.8 284.928 406.024C284.405 406.248 283.845 406.36 283.248 406.36ZM293.682 406.2V401.768C293.682 401.192 293.501 400.717 293.138 400.344C292.775 399.971 292.306 399.784 291.73 399.784C291.346 399.784 291.005 399.869 290.706 400.04C290.407 400.211 290.173 400.445 290.002 400.744C289.831 401.043 289.746 401.384 289.746 401.768L289.154 401.432C289.154 400.856 289.282 400.344 289.538 399.896C289.794 399.448 290.151 399.096 290.61 398.84C291.069 398.573 291.586 398.44 292.162 398.44C292.738 398.44 293.245 398.584 293.682 398.872C294.13 399.16 294.482 399.539 294.738 400.008C294.994 400.467 295.122 400.957 295.122 401.48V406.2H293.682ZM288.306 406.2V398.6H289.746V406.2H288.306ZM298.146 406.2V395.416H299.586V406.2H298.146ZM296.274 399.912V398.6H301.458V399.912H296.274ZM313.733 406.2L308.421 400.504C308.005 400.056 307.695 399.629 307.493 399.224C307.29 398.819 307.189 398.371 307.189 397.88C307.189 397.315 307.322 396.813 307.589 396.376C307.855 395.928 308.223 395.576 308.693 395.32C309.162 395.053 309.701 394.92 310.309 394.92C310.757 394.92 311.162 394.995 311.525 395.144C311.898 395.283 312.223 395.469 312.501 395.704C312.789 395.939 313.029 396.205 313.221 396.504L312.181 397.448C311.935 397.107 311.663 396.835 311.365 396.632C311.077 396.419 310.725 396.312 310.309 396.312C309.829 396.312 309.429 396.456 309.109 396.744C308.789 397.032 308.629 397.405 308.629 397.864C308.629 398.248 308.709 398.573 308.869 398.84C309.029 399.107 309.269 399.416 309.589 399.768L315.493 406.2H313.733ZM309.749 406.36C309.013 406.36 308.367 406.216 307.813 405.928C307.258 405.64 306.826 405.245 306.517 404.744C306.218 404.232 306.069 403.651 306.069 403C306.069 402.328 306.25 401.72 306.613 401.176C306.975 400.632 307.503 400.2 308.197 399.88L308.885 400.776C308.458 400.989 308.122 401.283 307.877 401.656C307.631 402.019 307.509 402.456 307.509 402.968C307.509 403.384 307.605 403.741 307.797 404.04C307.989 404.339 308.255 404.573 308.597 404.744C308.949 404.904 309.349 404.984 309.797 404.984C310.362 404.984 310.842 404.867 311.237 404.632C311.631 404.397 311.93 404.099 312.133 403.736L313.077 404.84C312.863 405.128 312.581 405.389 312.229 405.624C311.887 405.848 311.503 406.029 311.077 406.168C310.661 406.296 310.218 406.36 309.749 406.36ZM239.858 430.2V419.416H241.362V430.2H239.858ZM236.082 420.472V419.096H245.122V420.472H236.082ZM248.068 430.36C247.311 430.36 246.628 430.189 246.02 429.848C245.412 429.496 244.932 429.021 244.58 428.424C244.228 427.827 244.052 427.149 244.052 426.392C244.052 425.645 244.223 424.973 244.564 424.376C244.916 423.779 245.386 423.309 245.972 422.968C246.57 422.616 247.236 422.44 247.972 422.44C248.676 422.44 249.295 422.6 249.828 422.92C250.372 423.24 250.794 423.683 251.092 424.248C251.402 424.813 251.556 425.453 251.556 426.168C251.556 426.275 251.551 426.392 251.54 426.52C251.53 426.637 251.508 426.776 251.476 426.936H245.06V425.736H250.708L250.18 426.2C250.18 425.688 250.09 425.256 249.908 424.904C249.727 424.541 249.471 424.264 249.14 424.072C248.81 423.869 248.41 423.768 247.94 423.768C247.45 423.768 247.018 423.875 246.644 424.088C246.271 424.301 245.983 424.6 245.78 424.984C245.578 425.368 245.476 425.821 245.476 426.344C245.476 426.877 245.583 427.347 245.796 427.752C246.01 428.147 246.314 428.456 246.708 428.68C247.103 428.893 247.556 429 248.068 429C248.495 429 248.884 428.925 249.236 428.776C249.599 428.627 249.908 428.403 250.164 428.104L251.092 429.048C250.73 429.475 250.282 429.8 249.748 430.024C249.226 430.248 248.666 430.36 248.068 430.36ZM255.542 430.36C255.116 430.36 254.71 430.307 254.326 430.2C253.953 430.083 253.606 429.923 253.286 429.72C252.966 429.507 252.689 429.256 252.454 428.968L253.382 428.04C253.66 428.381 253.98 428.637 254.342 428.808C254.705 428.968 255.11 429.048 255.558 429.048C256.006 429.048 256.353 428.973 256.598 428.824C256.844 428.664 256.966 428.445 256.966 428.168C256.966 427.891 256.865 427.677 256.662 427.528C256.47 427.368 256.22 427.24 255.91 427.144C255.601 427.037 255.27 426.936 254.918 426.84C254.577 426.733 254.252 426.6 253.942 426.44C253.633 426.28 253.377 426.061 253.174 425.784C252.982 425.507 252.886 425.139 252.886 424.68C252.886 424.221 252.998 423.827 253.222 423.496C253.446 423.155 253.756 422.893 254.15 422.712C254.556 422.531 255.041 422.44 255.606 422.44C256.204 422.44 256.732 422.547 257.19 422.76C257.66 422.963 258.044 423.272 258.342 423.688L257.414 424.616C257.201 424.339 256.934 424.125 256.614 423.976C256.305 423.827 255.953 423.752 255.558 423.752C255.142 423.752 254.822 423.827 254.598 423.976C254.385 424.115 254.278 424.312 254.278 424.568C254.278 424.824 254.374 425.021 254.566 425.16C254.758 425.299 255.009 425.416 255.318 425.512C255.638 425.608 255.969 425.709 256.31 425.816C256.652 425.912 256.977 426.045 257.286 426.216C257.596 426.387 257.846 426.616 258.038 426.904C258.241 427.192 258.342 427.571 258.342 428.04C258.342 428.755 258.086 429.32 257.574 429.736C257.073 430.152 256.396 430.36 255.542 430.36ZM261.122 430.2V419.416H262.562V430.2H261.122ZM259.25 423.912V422.6H264.434V423.912H259.25ZM265.861 430.2V422.6H267.301V430.2H265.861ZM266.581 421.08C266.314 421.08 266.096 420.995 265.925 420.824C265.754 420.643 265.669 420.419 265.669 420.152C265.669 419.896 265.754 419.683 265.925 419.512C266.096 419.331 266.314 419.24 266.581 419.24C266.848 419.24 267.066 419.331 267.237 419.512C267.408 419.683 267.493 419.896 267.493 420.152C267.493 420.419 267.408 420.643 267.237 420.824C267.066 420.995 266.848 421.08 266.581 421.08ZM274.799 430.2V425.768C274.799 425.192 274.618 424.717 274.255 424.344C273.893 423.971 273.423 423.784 272.847 423.784C272.463 423.784 272.122 423.869 271.823 424.04C271.525 424.211 271.29 424.445 271.119 424.744C270.949 425.043 270.863 425.384 270.863 425.768L270.271 425.432C270.271 424.856 270.399 424.344 270.655 423.896C270.911 423.448 271.269 423.096 271.727 422.84C272.186 422.573 272.703 422.44 273.279 422.44C273.855 422.44 274.362 422.584 274.799 422.872C275.247 423.16 275.599 423.539 275.855 424.008C276.111 424.467 276.239 424.957 276.239 425.48V430.2H274.799ZM269.423 430.2V422.6H270.863V430.2H269.423ZM281.341 433.544C280.562 433.544 279.869 433.4 279.261 433.112C278.663 432.824 278.183 432.419 277.821 431.896L278.749 430.952C279.058 431.347 279.426 431.645 279.853 431.848C280.279 432.061 280.786 432.168 281.373 432.168C282.151 432.168 282.765 431.96 283.213 431.544C283.671 431.139 283.901 430.589 283.901 429.896V428.008L284.157 426.296L283.901 424.6V422.6H285.341V429.896C285.341 430.621 285.17 431.256 284.829 431.8C284.498 432.344 284.029 432.771 283.421 433.08C282.823 433.389 282.13 433.544 281.341 433.544ZM281.341 430.072C280.647 430.072 280.023 429.907 279.469 429.576C278.925 429.245 278.493 428.792 278.173 428.216C277.853 427.629 277.693 426.973 277.693 426.248C277.693 425.523 277.853 424.877 278.173 424.312C278.493 423.736 278.925 423.283 279.469 422.952C280.023 422.611 280.647 422.44 281.341 422.44C281.938 422.44 282.466 422.557 282.925 422.792C283.383 423.027 283.746 423.357 284.013 423.784C284.29 424.2 284.439 424.691 284.461 425.256V427.272C284.429 427.827 284.274 428.317 283.997 428.744C283.73 429.16 283.367 429.485 282.909 429.72C282.45 429.955 281.927 430.072 281.341 430.072ZM281.629 428.712C282.098 428.712 282.509 428.611 282.861 428.408C283.223 428.205 283.501 427.923 283.693 427.56C283.885 427.187 283.981 426.755 283.981 426.264C283.981 425.773 283.879 425.347 283.677 424.984C283.485 424.611 283.213 424.323 282.861 424.12C282.509 423.907 282.093 423.8 281.613 423.8C281.133 423.8 280.711 423.907 280.349 424.12C279.986 424.323 279.698 424.611 279.485 424.984C279.282 425.347 279.181 425.768 279.181 426.248C279.181 426.728 279.282 427.155 279.485 427.528C279.698 427.901 279.986 428.195 280.349 428.408C280.722 428.611 281.149 428.712 281.629 428.712Z" fill="black"/>
<rect x="233.5" y="460.7" width="55" height="55" rx="27.5" fill="#00C600"/>
<rect x="233.5" y="460.7" width="55" height="55" rx="27.5" fill="#002AD0"/>
<rect x="233.5" y="460.7" width="55" height="55" rx="27.5" fill="#00D6D6"/>
<rect x="233.5" y="460.7" width="55" height="55" rx="27.5" fill="#D8B700"/>
<g filter="url(#filter0_d_82_3)">
<rect x="233.5" y="460.7" width="55" height="55" rx="27.5" fill="#7219A3"/>
</g>
<defs>
<clipPath id="paint6_diamond_82_3_clip_path"><path d="M261 748.2V745.2C119.063 745.2 4 630.137 4 488.2H1H-2C-2 633.451 115.749 751.2 261 751.2V748.2ZM521 488.2H518C518 630.137 402.937 745.2 261 745.2V748.2V751.2C406.251 751.2 524 633.451 524 488.2H521ZM261 228.2V231.2C402.937 231.2 518 346.263 518 488.2H521H524C524 342.949 406.251 225.2 261 225.2V228.2ZM261 228.2V225.2C115.749 225.2 -2 342.949 -2 488.2H1H4C4 346.263 119.063 231.2 261 231.2V228.2Z" mask="url(#path-4-inside-1_82_3)"/></clipPath><filter id="filter0_d_82_3" x="204.5" y="441.7" width="117" height="117" filterUnits="userSpaceOnUse" color-interpolation-filters="sRGB">
<feFlood flood-opacity="0" result="BackgroundImageFix"/>
<feColorMatrix in="SourceAlpha" type="matrix" values="0 0 0 0 0 0 0 0 0 0 0 0 0 0 0 0 0 0 127 0" result="hardAlpha"/>
<feMorphology radius="1" operator="dilate" in="SourceAlpha" result="effect1_dropShadow_82_3"/>
<feOffset dx="2" dy="12"/>
<feGaussianBlur stdDeviation="15"/>
<feComposite in2="hardAlpha" operator="out"/>
<feColorMatrix type="matrix" values="0 0 0 0 0.607843 0 0 0 0 0.00784314 0 0 0 0 0.517647 0 0 0 0.145 0"/>
<feBlend mode="normal" in2="BackgroundImageFix" result="effect1_dropShadow_82_3"/>
<feBlend mode="normal" in="SourceGraphic" in2="effect1_dropShadow_82_3" result="shape"/>
</filter>
<linearGradient id="paint0_linear_82_3" x1="261" y1="748.305" x2="261" y2="228.097" gradientUnits="userSpaceOnUse">
<stop stop-color="#01CFFF"/>
<stop offset="0.506944" stop-color="#01CFFF" stop-opacity="0"/>
<stop offset="1" stop-color="#01CFFF"/>
</linearGradient>
<linearGradient id="paint1_linear_82_3" x1="285.179" y1="748.306" x2="285.179" y2="209.78" gradientUnits="userSpaceOnUse">
<stop stop-color="#01CFFF" stop-opacity="0"/>
<stop offset="1" stop-color="#01CFFF"/>
</linearGradient>
<linearGradient id="paint2_linear_82_3" x1="261.001" y1="683.28" x2="261.001" y2="293.123" gradientUnits="userSpaceOnUse">
<stop stop-color="#01CFFF"/>
<stop offset="0.506944" stop-color="#01CFFF" stop-opacity="0"/>
<stop offset="1" stop-color="#01CFFF"/>
</linearGradient>
<linearGradient id="paint3_linear_82_3" x1="279.134" y1="683.28" x2="279.134" y2="279.386" gradientUnits="userSpaceOnUse">
<stop stop-color="#01CFFF" stop-opacity="0"/>
<stop offset="1" stop-color="#01CFFF"/>
</linearGradient>
<linearGradient id="paint4_linear_82_3" x1="260.998" y1="358.149" x2="260.998" y2="618.253" gradientUnits="userSpaceOnUse">
<stop stop-color="#01CFFF"/>
<stop offset="0.506944" stop-color="#01CFFF" stop-opacity="0"/>
<stop offset="1" stop-color="#01CFFF"/>
</linearGradient>
<linearGradient id="paint5_linear_82_3" x1="248.909" y1="358.149" x2="248.909" y2="627.412" gradientUnits="userSpaceOnUse">
<stop stop-color="#01CFFF" stop-opacity="0"/>
<stop offset="1" stop-color="#01CFFF"/>
</linearGradient>
<linearGradient id="paint6_diamond_82_3" x1="0" y1="0" x2="500" y2="500" gradientUnits="userSpaceOnUse">
<stop offset="1" stop-opacity="0"/>
<stop offset="1" stop-color="#CCCCCC"/>
</linearGradient>
<linearGradient id="paint7_linear_82_3" x1="30.34" y1="612.71" x2="30.34" y2="642.71" gradientUnits="userSpaceOnUse">
<stop stop-color="#7219A3"/>
<stop offset="1" stop-color="#01CFFF" stop-opacity="0"/>
</linearGradient>
<linearGradient id="paint8_linear_82_3" x1="92.15" y1="283.14" x2="92.15" y2="313.14" gradientUnits="userSpaceOnUse">
<stop stop-color="#7219A3"/>
<stop offset="1" stop-color="#01CFFF" stop-opacity="0"/>
</linearGradient>
<linearGradient id="paint9_linear_82_3" x1="426.49" y1="257.55" x2="426.49" y2="287.55" gradientUnits="userSpaceOnUse">
<stop stop-color="#7219A3"/>
<stop offset="1" stop-color="#01CFFF" stop-opacity="0"/>
</linearGradient>
<linearGradient id="paint10_linear_82_3" x1="308.98" y1="69.6299" x2="308.98" y2="99.6299" gradientUnits="userSpaceOnUse">
<stop stop-color="#7219A3"/>
<stop offset="1" stop-color="#01CFFF" stop-opacity="0"/>
</linearGradient>
<linearGradient id="paint11_linear_82_3" x1="400.51" y1="41.8599" x2="400.51" y2="71.8599" gradientUnits="userSpaceOnUse">
<stop stop-color="#7219A3"/>
<stop offset="1" stop-color="#01CFFF" stop-opacity="0"/>
</linearGradient>
</defs>
</svg>
