<svg width="50" height="50" viewBox="0 0 50 50" fill="none" xmlns="http://www.w3.org/2000/svg">
<rect width="50" height="50" rx="25" fill="url(#paint0_linear_124_893)"/>
<path fill-rule="evenodd" clip-rule="evenodd" d="M39.7635 11.8387C39.6576 11.4787 39.3772 11.1983 39.0174 11.0926C39.0174 11.0926 29.6356 8.3007 21.9163 16.0185C18.1125 19.8223 14.1545 26.0478 13.8505 29.6167C13.8226 29.9398 13.9387 30.26 14.1692 30.4892L20.3669 36.6869C20.5961 36.9174 20.9163 37.0333 21.2394 37.0056C24.8081 36.7015 31.0338 32.7434 34.8376 28.9396C42.5554 21.2205 39.7635 11.8387 39.7635 11.8387ZM37.7896 13.0679C38.1817 15.0829 38.9263 21.7343 33.2794 27.3813C30.0058 30.6564 24.8199 34.174 21.5419 34.7467L16.1094 29.3142C16.6835 26.036 20.1995 20.8503 23.4746 17.5767C29.1216 11.9297 35.7745 12.6743 37.788 13.0665L37.7896 13.0679Z" fill="white"/>
<path fill-rule="evenodd" clip-rule="evenodd" d="M33.2881 17.568C31.4332 15.713 28.4195 15.713 26.5645 17.568C24.7096 19.4229 24.7096 22.4366 26.5645 24.2915C28.4195 26.1463 31.4332 26.1463 33.2881 24.2915C35.1431 22.4366 35.1431 19.4229 33.2881 17.568ZM31.7299 19.1262C32.7256 20.122 32.7256 21.7375 31.7299 22.7333C30.7341 23.729 29.1186 23.729 28.1228 22.7333C27.127 21.7375 27.127 20.122 28.1228 19.1262C29.1186 18.1305 30.7341 18.1305 31.7299 19.1262Z" fill="white"/>
<path fill-rule="evenodd" clip-rule="evenodd" d="M27.1199 32.6587L18.1978 23.7367C17.769 23.3078 17.07 23.3078 16.6411 23.7367C16.2108 24.1668 16.2108 24.8645 16.6411 25.2949L25.5617 34.2154C25.992 34.6458 26.6896 34.6458 27.1199 34.2154C27.5487 33.7866 27.5487 33.0875 27.1199 32.6587Z" fill="white"/>
<path fill-rule="evenodd" clip-rule="evenodd" d="M29.3462 31.6773C29.3462 31.6773 29.1244 34.105 28.9718 35.7865C28.9159 36.4005 28.5561 36.9439 28.0142 37.2361L24.3132 39.2292V35.9084C24.3132 35.3004 23.8196 34.8069 23.2116 34.8069C22.6035 34.8069 22.1101 35.3004 22.1101 35.9084V41.0737C22.1101 41.4614 22.3144 41.8212 22.6462 42.0195C22.9797 42.2178 23.3923 42.228 23.7345 42.043C23.7345 42.043 27.0918 40.2352 29.0584 39.1761C30.2525 38.5344 31.0439 37.3361 31.1659 35.9863C31.3186 34.3046 31.5405 31.8756 31.5405 31.8756C31.5947 31.2705 31.1483 30.7344 30.5432 30.68C29.9367 30.6242 29.4006 31.0708 29.3462 31.6773Z" fill="white"/>
<path fill-rule="evenodd" clip-rule="evenodd" d="M18.9804 19.316C18.9804 19.316 16.5512 19.5378 14.8697 19.6904C13.52 19.8123 12.3215 20.604 11.6797 21.7981C10.6209 23.7645 8.81301 27.122 8.81301 27.122C8.62782 27.4642 8.63824 27.8768 8.83635 28.2101C9.03465 28.5421 9.3946 28.7462 9.78234 28.7462H14.9475C15.5555 28.7462 16.0489 28.2527 16.0489 27.6447C16.0489 27.0367 15.5555 26.5432 14.9475 26.5432H11.6269L13.6199 22.8422C13.9122 22.3004 14.4556 21.9404 15.0694 21.8847C16.7511 21.7319 19.1787 21.5103 19.1787 21.5103C19.7852 21.4559 20.2318 20.9198 20.1759 20.3133C20.1216 19.7082 19.5856 19.2616 18.9804 19.316Z" fill="white"/>
<path fill-rule="evenodd" clip-rule="evenodd" d="M11.8544 32.2783L9.51937 34.6134C9.09055 35.0438 9.09055 35.7413 9.51937 36.1717C9.94954 36.6005 10.6473 36.6005 11.0776 36.1717L13.4127 33.8366C13.8431 33.4062 13.8431 32.7087 13.4127 32.2783C12.9823 31.848 12.2848 31.848 11.8544 32.2783Z" fill="white"/>
<path fill-rule="evenodd" clip-rule="evenodd" d="M14.4378 34.8613L10.0364 39.2614C9.60603 39.6918 9.60603 40.3893 10.0364 40.8197C10.4666 41.25 11.1643 41.25 11.5947 40.8197L15.9947 36.4181C16.4249 35.9892 16.4249 35.2902 15.9947 34.8613C15.5659 34.431 14.8668 34.431 14.4378 34.8613Z" fill="white"/>
<path fill-rule="evenodd" clip-rule="evenodd" d="M17.0199 37.4434L14.6847 39.7784C14.2558 40.2088 14.2558 40.9063 14.6847 41.3367C15.115 41.7655 15.8127 41.7655 16.2429 41.3367L18.5782 39.0014C19.0085 38.5713 19.0085 37.8735 18.5782 37.4434C18.1478 37.013 17.4503 37.013 17.0199 37.4434Z" fill="white"/>
<defs>
<linearGradient id="paint0_linear_124_893" x1="25" y1="0" x2="25" y2="50" gradientUnits="userSpaceOnUse">
<stop stop-color="#01CFFF" stop-opacity="0"/>
<stop offset="1" stop-color="#7219A3"/>
</linearGradient>
</defs>
</svg>
