<svg width="568" height="501" viewBox="0 0 568 501" fill="none" xmlns="http://www.w3.org/2000/svg">
<path d="M66.0704 20.36C65.185 20.36 64.433 20.2 63.8144 19.88C63.1957 19.56 62.641 19.0906 62.1504 18.472L63.3984 17.224C63.7077 17.672 64.0757 18.024 64.5024 18.28C64.929 18.5253 65.473 18.648 66.1344 18.648C66.753 18.648 67.2437 18.52 67.6064 18.264C67.9797 18.008 68.1664 17.656 68.1664 17.208C68.1664 16.8346 68.0704 16.5306 67.8784 16.296C67.6864 16.0613 67.4304 15.8693 67.1104 15.72C66.801 15.56 66.4544 15.4213 66.0704 15.304C65.697 15.176 65.3184 15.0373 64.9344 14.888C64.561 14.728 64.2144 14.5306 63.8944 14.296C63.585 14.0613 63.3344 13.7573 63.1424 13.384C62.9504 13.0106 62.8544 12.536 62.8544 11.96C62.8544 11.2986 63.0144 10.7386 63.3344 10.28C63.665 9.81062 64.1077 9.45328 64.6624 9.20795C65.217 8.96262 65.8357 8.83995 66.5184 8.83995C67.2544 8.83995 67.9104 8.98395 68.4864 9.27195C69.073 9.55995 69.5477 9.92795 69.9104 10.376L68.6624 11.624C68.3424 11.2613 68.0064 10.9946 67.6544 10.824C67.313 10.6426 66.9184 10.552 66.4704 10.552C65.9157 10.552 65.4784 10.664 65.1584 10.888C64.849 11.112 64.6944 11.4266 64.6944 11.832C64.6944 12.1733 64.7904 12.4506 64.9824 12.664C65.1744 12.8666 65.425 13.0426 65.7344 13.192C66.0544 13.3306 66.401 13.464 66.7744 13.592C67.1584 13.72 67.537 13.864 67.9104 14.024C68.2944 14.184 68.641 14.392 68.9504 14.648C69.2704 14.8933 69.5264 15.2133 69.7184 15.608C69.9104 16.0026 70.0064 16.4986 70.0064 17.096C70.0064 18.0986 69.649 18.8933 68.9344 19.48C68.2304 20.0666 67.2757 20.36 66.0704 20.36ZM73.105 15.976V14.376H75.905C76.289 14.376 76.625 14.3013 76.913 14.152C77.2117 13.992 77.4463 13.7733 77.617 13.496C77.7877 13.208 77.873 12.872 77.873 12.488C77.873 12.104 77.7877 11.7733 77.617 11.496C77.4463 11.208 77.2117 10.9893 76.913 10.84C76.625 10.68 76.289 10.6 75.905 10.6H73.105V8.99995H76.001C76.705 8.99995 77.3343 9.14395 77.889 9.43195C78.4543 9.71995 78.897 10.1253 79.217 10.648C79.5477 11.1706 79.713 11.784 79.713 12.488C79.713 13.192 79.5477 13.8053 79.217 14.328C78.897 14.8506 78.4543 15.256 77.889 15.544C77.3343 15.832 76.705 15.976 76.001 15.976H73.105ZM71.841 20.2V8.99995H73.681V20.2H71.841ZM82.6363 15.448V13.928H85.4683C86.0336 13.928 86.4709 13.784 86.7803 13.496C87.1003 13.1973 87.2603 12.7866 87.2603 12.264C87.2603 11.7946 87.1056 11.4 86.7963 11.08C86.4869 10.76 86.0496 10.6 85.4843 10.6H82.6363V8.99995H85.5643C86.2683 8.99995 86.8869 9.14395 87.4203 9.43195C87.9536 9.70928 88.3643 10.0933 88.6523 10.584C88.9509 11.064 89.1003 11.6133 89.1003 12.232C89.1003 12.8826 88.9509 13.448 88.6523 13.928C88.3643 14.408 87.9536 14.7813 87.4203 15.048C86.8869 15.3146 86.2683 15.448 85.5643 15.448H82.6363ZM81.3723 20.2V8.99995H83.2123V20.2H81.3723ZM87.5163 20.2L83.5963 15.336L85.3083 14.712L89.8363 20.2H87.5163ZM91.2004 20.2V8.99995H93.0404V20.2H91.2004ZM95.466 20.2V8.99995H96.746L97.306 11.112V20.2H95.466ZM103.226 20.2L96.522 11.448L96.746 8.99995L103.45 17.752L103.226 20.2ZM103.226 20.2L102.666 18.232V8.99995H104.506V20.2H103.226ZM109.751 20.2V9.31995H111.591V20.2H109.751ZM106.103 10.68V8.99995H115.239V10.68H106.103ZM121.234 20.2V8.99995H123.042V20.2H121.234ZM118.994 10.648V8.99995H122.882V10.648H118.994Z" fill="black"/>
<path d="M250.586 20.36C249.701 20.36 248.949 20.2 248.33 19.88C247.711 19.56 247.157 19.0906 246.666 18.472L247.914 17.224C248.223 17.672 248.591 18.024 249.018 18.28C249.445 18.5253 249.989 18.648 250.65 18.648C251.269 18.648 251.759 18.52 252.122 18.264C252.495 18.008 252.682 17.656 252.682 17.208C252.682 16.8346 252.586 16.5306 252.394 16.296C252.202 16.0613 251.946 15.8693 251.626 15.72C251.317 15.56 250.97 15.4213 250.586 15.304C250.213 15.176 249.834 15.0373 249.45 14.888C249.077 14.728 248.73 14.5306 248.41 14.296C248.101 14.0613 247.85 13.7573 247.658 13.384C247.466 13.0106 247.37 12.536 247.37 11.96C247.37 11.2986 247.53 10.7386 247.85 10.28C248.181 9.81062 248.623 9.45328 249.178 9.20795C249.733 8.96262 250.351 8.83995 251.034 8.83995C251.77 8.83995 252.426 8.98395 253.002 9.27195C253.589 9.55995 254.063 9.92795 254.426 10.376L253.178 11.624C252.858 11.2613 252.522 10.9946 252.17 10.824C251.829 10.6426 251.434 10.552 250.986 10.552C250.431 10.552 249.994 10.664 249.674 10.888C249.365 11.112 249.21 11.4266 249.21 11.832C249.21 12.1733 249.306 12.4506 249.498 12.664C249.69 12.8666 249.941 13.0426 250.25 13.192C250.57 13.3306 250.917 13.464 251.29 13.592C251.674 13.72 252.053 13.864 252.426 14.024C252.81 14.184 253.157 14.392 253.466 14.648C253.786 14.8933 254.042 15.2133 254.234 15.608C254.426 16.0026 254.522 16.4986 254.522 17.096C254.522 18.0986 254.165 18.8933 253.45 19.48C252.746 20.0666 251.791 20.36 250.586 20.36ZM257.621 15.976V14.376H260.421C260.805 14.376 261.141 14.3013 261.429 14.152C261.727 13.992 261.962 13.7733 262.133 13.496C262.303 13.208 262.389 12.872 262.389 12.488C262.389 12.104 262.303 11.7733 262.133 11.496C261.962 11.208 261.727 10.9893 261.429 10.84C261.141 10.68 260.805 10.6 260.421 10.6H257.621V8.99995H260.517C261.221 8.99995 261.85 9.14395 262.405 9.43195C262.97 9.71995 263.413 10.1253 263.733 10.648C264.063 11.1706 264.229 11.784 264.229 12.488C264.229 13.192 264.063 13.8053 263.733 14.328C263.413 14.8506 262.97 15.256 262.405 15.544C261.85 15.832 261.221 15.976 260.517 15.976H257.621ZM256.357 20.2V8.99995H258.197V20.2H256.357ZM267.152 15.448V13.928H269.984C270.549 13.928 270.987 13.784 271.296 13.496C271.616 13.1973 271.776 12.7866 271.776 12.264C271.776 11.7946 271.621 11.4 271.312 11.08C271.003 10.76 270.565 10.6 270 10.6H267.152V8.99995H270.08C270.784 8.99995 271.403 9.14395 271.936 9.43195C272.469 9.70928 272.88 10.0933 273.168 10.584C273.467 11.064 273.616 11.6133 273.616 12.232C273.616 12.8826 273.467 13.448 273.168 13.928C272.88 14.408 272.469 14.7813 271.936 15.048C271.403 15.3146 270.784 15.448 270.08 15.448H267.152ZM265.888 20.2V8.99995H267.728V20.2H265.888ZM272.032 20.2L268.112 15.336L269.824 14.712L274.352 20.2H272.032ZM275.716 20.2V8.99995H277.556V20.2H275.716ZM279.982 20.2V8.99995H281.262L281.822 11.112V20.2H279.982ZM287.742 20.2L281.038 11.448L281.262 8.99995L287.966 17.752L287.742 20.2ZM287.742 20.2L287.182 18.232V8.99995H289.022V20.2H287.742ZM294.266 20.2V9.31995H296.106V20.2H294.266ZM290.618 10.68V8.99995H299.754V10.68H290.618ZM303.542 19.112L307.67 14.728C308.011 14.3653 308.288 14.04 308.502 13.752C308.715 13.464 308.87 13.192 308.966 12.936C309.062 12.68 309.11 12.4186 309.11 12.152C309.11 11.6506 308.944 11.2613 308.614 10.984C308.294 10.696 307.883 10.552 307.382 10.552C306.848 10.552 306.379 10.6853 305.974 10.952C305.568 11.2186 305.206 11.6346 304.886 12.2L303.606 11.144C304.043 10.3866 304.582 9.81595 305.222 9.43195C305.862 9.03728 306.603 8.83995 307.446 8.83995C308.139 8.83995 308.747 8.97862 309.27 9.25595C309.792 9.53328 310.198 9.92262 310.486 10.424C310.774 10.9146 310.918 11.4853 310.918 12.136C310.918 12.6053 310.859 13.0266 310.742 13.4C310.635 13.7626 310.448 14.1306 310.182 14.504C309.915 14.8666 309.547 15.2933 309.078 15.784L305.91 19.064L303.542 19.112ZM303.542 20.2V19.112L305.126 18.552H311.142V20.2H303.542Z" fill="black"/>
<path d="M436.594 20.36C435.708 20.36 434.956 20.2 434.338 19.88C433.719 19.56 433.164 19.0906 432.674 18.472L433.922 17.224C434.231 17.672 434.599 18.024 435.026 18.28C435.452 18.5253 435.996 18.648 436.658 18.648C437.276 18.648 437.767 18.52 438.13 18.264C438.503 18.008 438.69 17.656 438.69 17.208C438.69 16.8346 438.594 16.5306 438.402 16.296C438.21 16.0613 437.954 15.8693 437.634 15.72C437.324 15.56 436.978 15.4213 436.594 15.304C436.22 15.176 435.842 15.0373 435.458 14.888C435.084 14.728 434.738 14.5306 434.418 14.296C434.108 14.0613 433.858 13.7573 433.666 13.384C433.474 13.0106 433.378 12.536 433.378 11.96C433.378 11.2986 433.538 10.7386 433.858 10.28C434.188 9.81062 434.631 9.45328 435.186 9.20795C435.74 8.96262 436.359 8.83995 437.042 8.83995C437.778 8.83995 438.434 8.98395 439.01 9.27195C439.596 9.55995 440.071 9.92795 440.434 10.376L439.186 11.624C438.866 11.2613 438.53 10.9946 438.178 10.824C437.836 10.6426 437.442 10.552 436.994 10.552C436.439 10.552 436.002 10.664 435.682 10.888C435.372 11.112 435.218 11.4266 435.218 11.832C435.218 12.1733 435.314 12.4506 435.506 12.664C435.698 12.8666 435.948 13.0426 436.258 13.192C436.578 13.3306 436.924 13.464 437.298 13.592C437.682 13.72 438.06 13.864 438.434 14.024C438.818 14.184 439.164 14.392 439.474 14.648C439.794 14.8933 440.05 15.2133 440.242 15.608C440.434 16.0026 440.53 16.4986 440.53 17.096C440.53 18.0986 440.172 18.8933 439.458 19.48C438.754 20.0666 437.799 20.36 436.594 20.36ZM443.628 15.976V14.376H446.428C446.812 14.376 447.148 14.3013 447.436 14.152C447.735 13.992 447.97 13.7733 448.14 13.496C448.311 13.208 448.396 12.872 448.396 12.488C448.396 12.104 448.311 11.7733 448.14 11.496C447.97 11.208 447.735 10.9893 447.436 10.84C447.148 10.68 446.812 10.6 446.428 10.6H443.628V8.99995H446.524C447.228 8.99995 447.858 9.14395 448.412 9.43195C448.978 9.71995 449.42 10.1253 449.74 10.648C450.071 11.1706 450.236 11.784 450.236 12.488C450.236 13.192 450.071 13.8053 449.74 14.328C449.42 14.8506 448.978 15.256 448.412 15.544C447.858 15.832 447.228 15.976 446.524 15.976H443.628ZM442.364 20.2V8.99995H444.204V20.2H442.364ZM453.16 15.448V13.928H455.992C456.557 13.928 456.994 13.784 457.304 13.496C457.624 13.1973 457.784 12.7866 457.784 12.264C457.784 11.7946 457.629 11.4 457.32 11.08C457.01 10.76 456.573 10.6 456.008 10.6H453.16V8.99995H456.088C456.792 8.99995 457.41 9.14395 457.944 9.43195C458.477 9.70928 458.888 10.0933 459.176 10.584C459.474 11.064 459.624 11.6133 459.624 12.232C459.624 12.8826 459.474 13.448 459.176 13.928C458.888 14.408 458.477 14.7813 457.944 15.048C457.41 15.3146 456.792 15.448 456.088 15.448H453.16ZM451.896 20.2V8.99995H453.736V20.2H451.896ZM458.04 20.2L454.12 15.336L455.832 14.712L460.36 20.2H458.04ZM461.724 20.2V8.99995H463.564V20.2H461.724ZM465.989 20.2V8.99995H467.269L467.829 11.112V20.2H465.989ZM473.749 20.2L467.045 11.448L467.269 8.99995L473.973 17.752L473.749 20.2ZM473.749 20.2L473.189 18.232V8.99995H475.029V20.2H473.749ZM480.274 20.2V9.31995H482.114V20.2H480.274ZM476.626 10.68V8.99995H485.762V10.68H476.626ZM493.038 20.36C492.291 20.36 491.614 20.2266 491.006 19.96C490.408 19.6826 489.902 19.2826 489.486 18.76L490.734 17.512C490.958 17.8533 491.272 18.1253 491.678 18.328C492.083 18.5306 492.526 18.632 493.006 18.632C493.464 18.632 493.859 18.5466 494.19 18.376C494.52 18.2053 494.776 17.9653 494.958 17.656C495.15 17.3466 495.246 16.9893 495.246 16.584C495.246 16.1573 495.15 15.7946 494.958 15.496C494.776 15.1973 494.51 14.968 494.158 14.808C493.816 14.6373 493.4 14.552 492.91 14.552C492.718 14.552 492.52 14.568 492.318 14.6C492.115 14.6213 491.934 14.6586 491.774 14.712L492.59 13.656C492.814 13.5706 493.048 13.5013 493.294 13.448C493.55 13.384 493.795 13.352 494.03 13.352C494.606 13.352 495.123 13.4906 495.582 13.768C496.051 14.0453 496.419 14.4346 496.686 14.936C496.963 15.4266 497.102 16.008 497.102 16.68C497.102 17.4053 496.931 18.0453 496.59 18.6C496.248 19.1546 495.774 19.5866 495.166 19.896C494.558 20.2053 493.848 20.36 493.038 20.36ZM491.774 14.712V13.624L494.766 10.136L496.974 10.088L493.854 13.672L491.774 14.712ZM490.046 10.648V8.99995H496.974V10.088L495.39 10.648H490.046Z" fill="black"/>
<rect y="120.2" width="558" height="1" fill="#656565"/>
<rect y="215.2" width="558" height="1" fill="#656565"/>
<rect y="310.2" width="558" height="1" fill="#656565"/>
<rect y="410.2" width="558" height="1" fill="#656565"/>
<rect x="40" y="50.2" width="227.97" height="46" rx="23" fill="#01CFFF"/>
<path d="M120.42 80.4C119.313 80.4 118.373 80.2 117.6 79.8C116.827 79.4 116.133 78.8133 115.52 78.04L117.08 76.48C117.467 77.04 117.927 77.48 118.46 77.8C118.993 78.1066 119.673 78.26 120.5 78.26C121.273 78.26 121.887 78.1 122.34 77.78C122.807 77.46 123.04 77.02 123.04 76.46C123.04 75.9933 122.92 75.6133 122.68 75.32C122.44 75.0266 122.12 74.7866 121.72 74.6C121.333 74.4 120.9 74.2266 120.42 74.08C119.953 73.92 119.48 73.7466 119 73.56C118.533 73.36 118.1 73.1133 117.7 72.82C117.313 72.5266 117 72.1466 116.76 71.68C116.52 71.2133 116.4 70.62 116.4 69.9C116.4 69.0733 116.6 68.3733 117 67.8C117.413 67.2133 117.967 66.7666 118.66 66.46C119.353 66.1533 120.127 66 120.98 66C121.9 66 122.72 66.18 123.44 66.54C124.173 66.9 124.767 67.36 125.22 67.92L123.66 69.48C123.26 69.0266 122.84 68.6933 122.4 68.48C121.973 68.2533 121.48 68.14 120.92 68.14C120.227 68.14 119.68 68.28 119.28 68.56C118.893 68.84 118.7 69.2333 118.7 69.74C118.7 70.1666 118.82 70.5133 119.06 70.78C119.3 71.0333 119.613 71.2533 120 71.44C120.4 71.6133 120.833 71.78 121.3 71.94C121.78 72.1 122.253 72.28 122.72 72.48C123.2 72.68 123.633 72.94 124.02 73.26C124.42 73.5666 124.74 73.9666 124.98 74.46C125.22 74.9533 125.34 75.5733 125.34 76.32C125.34 77.5733 124.893 78.5666 124 79.3C123.12 80.0333 121.927 80.4 120.42 80.4ZM128.793 80.2V66.6H130.993V80.2H128.793ZM126.493 72.6V70.6H133.293V72.6H126.493ZM134.892 80.2V70.6H137.092V80.2H134.892ZM137.092 74.86L136.332 74.48C136.332 73.2666 136.599 72.2866 137.132 71.54C137.679 70.78 138.499 70.4 139.592 70.4C140.072 70.4 140.505 70.4866 140.892 70.66C141.279 70.8333 141.639 71.1133 141.972 71.5L140.532 72.98C140.359 72.7933 140.165 72.66 139.952 72.58C139.739 72.5 139.492 72.46 139.212 72.46C138.599 72.46 138.092 72.6533 137.692 73.04C137.292 73.4266 137.092 74.0333 137.092 74.86ZM146.763 80.4C145.897 80.4 145.11 80.18 144.403 79.74C143.71 79.3 143.157 78.7066 142.743 77.96C142.343 77.2 142.143 76.3533 142.143 75.42C142.143 74.4733 142.343 73.6266 142.743 72.88C143.157 72.12 143.71 71.52 144.403 71.08C145.11 70.6266 145.897 70.4 146.763 70.4C147.497 70.4 148.143 70.56 148.703 70.88C149.277 71.1866 149.73 71.6133 150.063 72.16C150.397 72.7066 150.563 73.3266 150.563 74.02V76.78C150.563 77.4733 150.397 78.0933 150.063 78.64C149.743 79.1866 149.297 79.62 148.723 79.94C148.15 80.2466 147.497 80.4 146.763 80.4ZM147.123 78.32C147.937 78.32 148.59 78.0466 149.083 77.5C149.59 76.9533 149.843 76.2533 149.843 75.4C149.843 74.8266 149.73 74.32 149.503 73.88C149.277 73.44 148.957 73.1 148.543 72.86C148.143 72.6066 147.67 72.48 147.123 72.48C146.59 72.48 146.117 72.6066 145.703 72.86C145.303 73.1 144.983 73.44 144.743 73.88C144.517 74.32 144.403 74.8266 144.403 75.4C144.403 75.9733 144.517 76.48 144.743 76.92C144.983 77.36 145.303 77.7066 145.703 77.96C146.117 78.2 146.59 78.32 147.123 78.32ZM149.703 80.2V77.62L150.083 75.28L149.703 72.96V70.6H151.903V80.2H149.703ZM155.805 80.2V66.6H158.005V80.2H155.805ZM153.505 72.6V70.6H160.305V72.6H153.505ZM166.09 80.4C165.13 80.4 164.263 80.1866 163.49 79.76C162.73 79.32 162.123 78.72 161.67 77.96C161.23 77.2 161.01 76.3466 161.01 75.4C161.01 74.4533 161.23 73.6066 161.67 72.86C162.11 72.1 162.703 71.5 163.45 71.06C164.21 70.62 165.05 70.4 165.97 70.4C166.863 70.4 167.65 70.6066 168.33 71.02C169.023 71.4333 169.563 72 169.95 72.72C170.35 73.44 170.55 74.26 170.55 75.18C170.55 75.34 170.537 75.5066 170.51 75.68C170.497 75.84 170.47 76.02 170.43 76.22H162.55V74.42H169.29L168.47 75.14C168.443 74.5533 168.33 74.06 168.13 73.66C167.93 73.26 167.643 72.9533 167.27 72.74C166.91 72.5266 166.463 72.42 165.93 72.42C165.37 72.42 164.883 72.54 164.47 72.78C164.057 73.02 163.737 73.36 163.51 73.8C163.283 74.2266 163.17 74.74 163.17 75.34C163.17 75.94 163.29 76.4666 163.53 76.92C163.77 77.3733 164.11 77.7266 164.55 77.98C164.99 78.22 165.497 78.34 166.07 78.34C166.563 78.34 167.017 78.2533 167.43 78.08C167.857 77.9066 168.217 77.6533 168.51 77.32L169.91 78.74C169.443 79.2866 168.877 79.7 168.21 79.98C167.543 80.26 166.837 80.4 166.09 80.4ZM176.314 84.4C175.3 84.4 174.414 84.2133 173.654 83.84C172.894 83.48 172.28 82.9666 171.814 82.3L173.254 80.86C173.64 81.34 174.08 81.7 174.574 81.94C175.067 82.18 175.66 82.3 176.354 82.3C177.22 82.3 177.907 82.0733 178.414 81.62C178.92 81.18 179.174 80.5733 179.174 79.8V77.44L179.554 75.32L179.174 73.18V70.6H181.374V79.8C181.374 80.72 181.16 81.52 180.734 82.2C180.307 82.8933 179.714 83.4333 178.954 83.82C178.194 84.2066 177.314 84.4 176.314 84.4ZM176.214 80C175.36 80 174.587 79.7933 173.894 79.38C173.214 78.9533 172.674 78.3733 172.274 77.64C171.887 76.9066 171.694 76.0866 171.694 75.18C171.694 74.2733 171.887 73.46 172.274 72.74C172.674 72.02 173.214 71.4533 173.894 71.04C174.587 70.6133 175.36 70.4 176.214 70.4C176.974 70.4 177.64 70.5533 178.214 70.86C178.787 71.1666 179.234 71.5933 179.554 72.14C179.874 72.6733 180.034 73.3 180.034 74.02V76.38C180.034 77.0866 179.867 77.7133 179.534 78.26C179.214 78.8066 178.767 79.2333 178.194 79.54C177.62 79.8466 176.96 80 176.214 80ZM176.654 77.92C177.187 77.92 177.654 77.8066 178.054 77.58C178.454 77.3533 178.76 77.04 178.974 76.64C179.2 76.2266 179.314 75.7466 179.314 75.2C179.314 74.6533 179.2 74.18 178.974 73.78C178.76 73.3666 178.454 73.0466 178.054 72.82C177.654 72.5933 177.187 72.48 176.654 72.48C176.12 72.48 175.647 72.5933 175.234 72.82C174.834 73.0466 174.52 73.3666 174.294 73.78C174.067 74.18 173.954 74.6533 173.954 75.2C173.954 75.7333 174.067 76.2066 174.294 76.62C174.52 77.0333 174.834 77.3533 175.234 77.58C175.647 77.8066 176.12 77.92 176.654 77.92ZM186.918 80.3L182.818 70.6H185.238L188.038 77.72H187.338L190.298 70.6H192.738L188.278 80.3H186.918ZM184.058 84.2L187.038 78.06L188.278 80.3L186.498 84.2H184.058Z" fill="white"/>
<rect x="111.59" y="145.2" width="262.803" height="46" rx="23" fill="#7219A3"/>
<path d="M219.69 175.2V173.1H223.37C224.33 173.1 225.17 172.893 225.89 172.48C226.624 172.067 227.19 171.493 227.59 170.76C228.004 170.013 228.21 169.153 228.21 168.18C228.21 167.22 228.004 166.373 227.59 165.64C227.177 164.907 226.604 164.333 225.87 163.92C225.15 163.507 224.317 163.3 223.37 163.3H219.69V161.2H223.43C224.444 161.2 225.384 161.38 226.25 161.74C227.117 162.087 227.87 162.58 228.51 163.22C229.164 163.847 229.67 164.587 230.03 165.44C230.39 166.28 230.57 167.2 230.57 168.2C230.57 169.187 230.39 170.107 230.03 170.96C229.67 171.813 229.17 172.56 228.53 173.2C227.89 173.827 227.137 174.32 226.27 174.68C225.404 175.027 224.47 175.2 223.47 175.2H219.69ZM218.11 175.2V161.2H220.41V175.2H218.11ZM237.075 175.4C236.115 175.4 235.248 175.187 234.475 174.76C233.715 174.32 233.108 173.72 232.655 172.96C232.215 172.2 231.995 171.347 231.995 170.4C231.995 169.453 232.215 168.607 232.655 167.86C233.095 167.1 233.688 166.5 234.435 166.06C235.195 165.62 236.035 165.4 236.955 165.4C237.848 165.4 238.635 165.607 239.315 166.02C240.008 166.433 240.548 167 240.935 167.72C241.335 168.44 241.535 169.26 241.535 170.18C241.535 170.34 241.522 170.507 241.495 170.68C241.482 170.84 241.455 171.02 241.415 171.22H233.535V169.42H240.275L239.455 170.14C239.428 169.553 239.315 169.06 239.115 168.66C238.915 168.26 238.628 167.953 238.255 167.74C237.895 167.527 237.448 167.42 236.915 167.42C236.355 167.42 235.868 167.54 235.455 167.78C235.042 168.02 234.722 168.36 234.495 168.8C234.268 169.227 234.155 169.74 234.155 170.34C234.155 170.94 234.275 171.467 234.515 171.92C234.755 172.373 235.095 172.727 235.535 172.98C235.975 173.22 236.482 173.34 237.055 173.34C237.548 173.34 238.002 173.253 238.415 173.08C238.842 172.907 239.202 172.653 239.495 172.32L240.895 173.74C240.428 174.287 239.862 174.7 239.195 174.98C238.528 175.26 237.822 175.4 237.075 175.4ZM246.439 175.4C245.905 175.4 245.392 175.333 244.899 175.2C244.405 175.053 243.952 174.853 243.539 174.6C243.125 174.333 242.765 174.013 242.459 173.64L243.859 172.24C244.192 172.627 244.572 172.92 244.999 173.12C245.439 173.307 245.932 173.4 246.479 173.4C246.972 173.4 247.345 173.327 247.599 173.18C247.852 173.033 247.979 172.82 247.979 172.54C247.979 172.247 247.859 172.02 247.619 171.86C247.379 171.7 247.065 171.567 246.679 171.46C246.305 171.34 245.905 171.22 245.479 171.1C245.065 170.98 244.665 170.82 244.279 170.62C243.905 170.407 243.599 170.12 243.359 169.76C243.119 169.4 242.999 168.933 242.999 168.36C242.999 167.747 243.139 167.22 243.419 166.78C243.712 166.34 244.119 166 244.639 165.76C245.172 165.52 245.805 165.4 246.539 165.4C247.312 165.4 247.992 165.54 248.579 165.82C249.179 166.087 249.679 166.493 250.079 167.04L248.679 168.44C248.399 168.093 248.079 167.833 247.719 167.66C247.359 167.487 246.945 167.4 246.479 167.4C246.039 167.4 245.699 167.467 245.459 167.6C245.219 167.733 245.099 167.927 245.099 168.18C245.099 168.447 245.219 168.653 245.459 168.8C245.699 168.947 246.005 169.073 246.379 169.18C246.765 169.287 247.165 169.407 247.579 169.54C248.005 169.66 248.405 169.833 248.779 170.06C249.165 170.273 249.479 170.567 249.719 170.94C249.959 171.3 250.079 171.773 250.079 172.36C250.079 173.293 249.752 174.033 249.099 174.58C248.445 175.127 247.559 175.4 246.439 175.4ZM251.912 175.2V165.6H254.112V175.2H251.912ZM253.012 163.84C252.639 163.84 252.326 163.713 252.072 163.46C251.832 163.207 251.712 162.893 251.712 162.52C251.712 162.147 251.832 161.833 252.072 161.58C252.326 161.327 252.639 161.2 253.012 161.2C253.399 161.2 253.712 161.327 253.952 161.58C254.192 161.833 254.312 162.147 254.312 162.52C254.312 162.893 254.192 163.207 253.952 163.46C253.712 163.713 253.399 163.84 253.012 163.84ZM260.58 179.4C259.567 179.4 258.68 179.213 257.92 178.84C257.16 178.48 256.547 177.967 256.08 177.3L257.52 175.86C257.907 176.34 258.347 176.7 258.84 176.94C259.333 177.18 259.927 177.3 260.62 177.3C261.487 177.3 262.173 177.073 262.68 176.62C263.187 176.18 263.44 175.573 263.44 174.8V172.44L263.82 170.32L263.44 168.18V165.6H265.64V174.8C265.64 175.72 265.427 176.52 265 177.2C264.573 177.893 263.98 178.433 263.22 178.82C262.46 179.207 261.58 179.4 260.58 179.4ZM260.48 175C259.627 175 258.853 174.793 258.16 174.38C257.48 173.953 256.94 173.373 256.54 172.64C256.153 171.907 255.96 171.087 255.96 170.18C255.96 169.273 256.153 168.46 256.54 167.74C256.94 167.02 257.48 166.453 258.16 166.04C258.853 165.613 259.627 165.4 260.48 165.4C261.24 165.4 261.907 165.553 262.48 165.86C263.053 166.167 263.5 166.593 263.82 167.14C264.14 167.673 264.3 168.3 264.3 169.02V171.38C264.3 172.087 264.133 172.713 263.8 173.26C263.48 173.807 263.033 174.233 262.46 174.54C261.887 174.847 261.227 175 260.48 175ZM260.92 172.92C261.453 172.92 261.92 172.807 262.32 172.58C262.72 172.353 263.027 172.04 263.24 171.64C263.467 171.227 263.58 170.747 263.58 170.2C263.58 169.653 263.467 169.18 263.24 168.78C263.027 168.367 262.72 168.047 262.32 167.82C261.92 167.593 261.453 167.48 260.92 167.48C260.387 167.48 259.913 167.593 259.5 167.82C259.1 168.047 258.787 168.367 258.56 168.78C258.333 169.18 258.22 169.653 258.22 170.2C258.22 170.733 258.333 171.207 258.56 171.62C258.787 172.033 259.1 172.353 259.5 172.58C259.913 172.807 260.387 172.92 260.92 172.92ZM274.664 175.2V169.66C274.664 169.02 274.457 168.493 274.044 168.08C273.644 167.667 273.124 167.46 272.484 167.46C272.057 167.46 271.677 167.553 271.344 167.74C271.01 167.927 270.75 168.187 270.564 168.52C270.377 168.853 270.284 169.233 270.284 169.66L269.424 169.18C269.424 168.447 269.584 167.8 269.904 167.24C270.224 166.667 270.664 166.22 271.224 165.9C271.797 165.567 272.437 165.4 273.144 165.4C273.864 165.4 274.504 165.587 275.064 165.96C275.624 166.32 276.064 166.793 276.384 167.38C276.704 167.953 276.864 168.553 276.864 169.18V175.2H274.664ZM268.084 175.2V165.6H270.284V175.2H268.084Z" fill="white"/>
<rect x="186" y="240.2" width="294.481" height="46" rx="23" fill="#01CFFF"/>
<path d="M239.1 270.2V268.1H242.78C243.74 268.1 244.58 267.893 245.3 267.48C246.033 267.067 246.6 266.493 247 265.76C247.413 265.013 247.62 264.153 247.62 263.18C247.62 262.22 247.413 261.373 247 260.64C246.587 259.907 246.013 259.333 245.28 258.92C244.56 258.507 243.727 258.3 242.78 258.3H239.1V256.2H242.84C243.853 256.2 244.793 256.38 245.66 256.74C246.527 257.087 247.28 257.58 247.92 258.22C248.573 258.847 249.08 259.587 249.44 260.44C249.8 261.28 249.98 262.2 249.98 263.2C249.98 264.187 249.8 265.107 249.44 265.96C249.08 266.813 248.58 267.56 247.94 268.2C247.3 268.827 246.547 269.32 245.68 269.68C244.813 270.027 243.88 270.2 242.88 270.2H239.1ZM237.52 270.2V256.2H239.82V270.2H237.52ZM256.485 270.4C255.525 270.4 254.658 270.187 253.885 269.76C253.125 269.32 252.518 268.72 252.065 267.96C251.625 267.2 251.405 266.347 251.405 265.4C251.405 264.453 251.625 263.607 252.065 262.86C252.505 262.1 253.098 261.5 253.845 261.06C254.605 260.62 255.445 260.4 256.365 260.4C257.258 260.4 258.045 260.607 258.725 261.02C259.418 261.433 259.958 262 260.345 262.72C260.745 263.44 260.945 264.26 260.945 265.18C260.945 265.34 260.931 265.507 260.905 265.68C260.891 265.84 260.865 266.02 260.825 266.22H252.945V264.42H259.685L258.865 265.14C258.838 264.553 258.725 264.06 258.525 263.66C258.325 263.26 258.038 262.953 257.665 262.74C257.305 262.527 256.858 262.42 256.325 262.42C255.765 262.42 255.278 262.54 254.865 262.78C254.451 263.02 254.131 263.36 253.905 263.8C253.678 264.227 253.565 264.74 253.565 265.34C253.565 265.94 253.685 266.467 253.925 266.92C254.165 267.373 254.505 267.727 254.945 267.98C255.385 268.22 255.891 268.34 256.465 268.34C256.958 268.34 257.411 268.253 257.825 268.08C258.251 267.907 258.611 267.653 258.905 267.32L260.305 268.74C259.838 269.287 259.271 269.7 258.605 269.98C257.938 270.26 257.231 270.4 256.485 270.4ZM265.792 270.2L261.412 260.6H263.852L267.192 268.42H265.752L269.112 260.6H271.452L267.072 270.2H265.792ZM276.875 270.4C275.915 270.4 275.049 270.187 274.275 269.76C273.515 269.32 272.909 268.72 272.455 267.96C272.015 267.2 271.795 266.347 271.795 265.4C271.795 264.453 272.015 263.607 272.455 262.86C272.895 262.1 273.489 261.5 274.235 261.06C274.995 260.62 275.835 260.4 276.755 260.4C277.649 260.4 278.435 260.607 279.115 261.02C279.809 261.433 280.349 262 280.735 262.72C281.135 263.44 281.335 264.26 281.335 265.18C281.335 265.34 281.322 265.507 281.295 265.68C281.282 265.84 281.255 266.02 281.215 266.22H273.335V264.42H280.075L279.255 265.14C279.229 264.553 279.115 264.06 278.915 263.66C278.715 263.26 278.429 262.953 278.055 262.74C277.695 262.527 277.249 262.42 276.715 262.42C276.155 262.42 275.669 262.54 275.255 262.78C274.842 263.02 274.522 263.36 274.295 263.8C274.069 264.227 273.955 264.74 273.955 265.34C273.955 265.94 274.075 266.467 274.315 266.92C274.555 267.373 274.895 267.727 275.335 267.98C275.775 268.22 276.282 268.34 276.855 268.34C277.349 268.34 277.802 268.253 278.215 268.08C278.642 267.907 279.002 267.653 279.295 267.32L280.695 268.74C280.229 269.287 279.662 269.7 278.995 269.98C278.329 270.26 277.622 270.4 276.875 270.4ZM283.099 270.2V255.8H285.299V270.2H283.099ZM292.147 270.4C291.214 270.4 290.367 270.18 289.607 269.74C288.847 269.287 288.241 268.68 287.787 267.92C287.347 267.16 287.127 266.313 287.127 265.38C287.127 264.447 287.347 263.607 287.787 262.86C288.241 262.113 288.847 261.52 289.607 261.08C290.367 260.627 291.214 260.4 292.147 260.4C293.094 260.4 293.947 260.62 294.707 261.06C295.467 261.5 296.067 262.1 296.507 262.86C296.961 263.607 297.187 264.447 297.187 265.38C297.187 266.313 296.961 267.16 296.507 267.92C296.067 268.68 295.467 269.287 294.707 269.74C293.947 270.18 293.094 270.4 292.147 270.4ZM292.147 268.28C292.694 268.28 293.174 268.16 293.587 267.92C294.014 267.667 294.341 267.32 294.567 266.88C294.807 266.44 294.927 265.94 294.927 265.38C294.927 264.82 294.807 264.327 294.567 263.9C294.327 263.473 294.001 263.14 293.587 262.9C293.174 262.647 292.694 262.52 292.147 262.52C291.614 262.52 291.134 262.647 290.707 262.9C290.294 263.14 289.967 263.473 289.727 263.9C289.501 264.327 289.387 264.82 289.387 265.38C289.387 265.94 289.501 266.44 289.727 266.88C289.967 267.32 290.294 267.667 290.707 267.92C291.134 268.16 291.614 268.28 292.147 268.28ZM304.157 270.4C303.424 270.4 302.77 270.247 302.197 269.94C301.624 269.62 301.17 269.187 300.837 268.64C300.517 268.093 300.357 267.473 300.357 266.78V264.02C300.357 263.327 300.524 262.707 300.857 262.16C301.19 261.613 301.644 261.187 302.217 260.88C302.79 260.56 303.437 260.4 304.157 260.4C305.024 260.4 305.804 260.627 306.497 261.08C307.204 261.52 307.757 262.12 308.157 262.88C308.57 263.627 308.777 264.473 308.777 265.42C308.777 266.353 308.57 267.2 308.157 267.96C307.757 268.707 307.204 269.3 306.497 269.74C305.804 270.18 305.024 270.4 304.157 270.4ZM299.017 274.2V260.6H301.217V263.18L300.837 265.52L301.217 267.84V274.2H299.017ZM303.797 268.32C304.33 268.32 304.797 268.2 305.197 267.96C305.61 267.707 305.93 267.36 306.157 266.92C306.397 266.48 306.517 265.973 306.517 265.4C306.517 264.827 306.397 264.32 306.157 263.88C305.93 263.44 305.61 263.1 305.197 262.86C304.797 262.607 304.33 262.48 303.797 262.48C303.264 262.48 302.79 262.607 302.377 262.86C301.964 263.1 301.644 263.44 301.417 263.88C301.19 264.32 301.077 264.827 301.077 265.4C301.077 265.973 301.19 266.48 301.417 266.92C301.644 267.36 301.964 267.707 302.377 267.96C302.79 268.2 303.264 268.32 303.797 268.32ZM310.618 270.2V260.6H312.818V270.2H310.618ZM316.998 270.2V264.48C316.998 263.84 316.798 263.347 316.398 263C315.998 262.64 315.505 262.46 314.918 262.46C314.518 262.46 314.158 262.54 313.838 262.7C313.532 262.86 313.285 263.093 313.098 263.4C312.912 263.693 312.818 264.053 312.818 264.48L311.958 264C311.958 263.267 312.118 262.633 312.438 262.1C312.758 261.567 313.192 261.153 313.738 260.86C314.285 260.553 314.898 260.4 315.578 260.4C316.258 260.4 316.872 260.547 317.418 260.84C317.965 261.133 318.398 261.547 318.718 262.08C319.038 262.613 319.198 263.253 319.198 264V270.2H316.998ZM323.378 270.2V264.48C323.378 263.84 323.178 263.347 322.778 263C322.378 262.64 321.885 262.46 321.298 262.46C320.912 262.46 320.558 262.54 320.238 262.7C319.918 262.86 319.665 263.093 319.478 263.4C319.292 263.693 319.198 264.053 319.198 264.48L317.958 264C318.025 263.267 318.238 262.633 318.598 262.1C318.958 261.567 319.418 261.153 319.978 260.86C320.552 260.553 321.178 260.4 321.858 260.4C322.552 260.4 323.178 260.547 323.738 260.84C324.298 261.133 324.745 261.547 325.078 262.08C325.412 262.613 325.578 263.253 325.578 264V270.2H323.378ZM332.305 270.4C331.345 270.4 330.478 270.187 329.705 269.76C328.945 269.32 328.338 268.72 327.885 267.96C327.445 267.2 327.225 266.347 327.225 265.4C327.225 264.453 327.445 263.607 327.885 262.86C328.325 262.1 328.918 261.5 329.665 261.06C330.425 260.62 331.265 260.4 332.185 260.4C333.078 260.4 333.865 260.607 334.545 261.02C335.238 261.433 335.778 262 336.165 262.72C336.565 263.44 336.765 264.26 336.765 265.18C336.765 265.34 336.752 265.507 336.725 265.68C336.712 265.84 336.685 266.02 336.645 266.22H328.765V264.42H335.505L334.685 265.14C334.658 264.553 334.545 264.06 334.345 263.66C334.145 263.26 333.858 262.953 333.485 262.74C333.125 262.527 332.678 262.42 332.145 262.42C331.585 262.42 331.098 262.54 330.685 262.78C330.272 263.02 329.952 263.36 329.725 263.8C329.498 264.227 329.385 264.74 329.385 265.34C329.385 265.94 329.505 266.467 329.745 266.92C329.985 267.373 330.325 267.727 330.765 267.98C331.205 268.22 331.712 268.34 332.285 268.34C332.778 268.34 333.232 268.253 333.645 268.08C334.072 267.907 334.432 267.653 334.725 267.32L336.125 268.74C335.658 269.287 335.092 269.7 334.425 269.98C333.758 270.26 333.052 270.4 332.305 270.4ZM345.109 270.2V264.66C345.109 264.02 344.902 263.493 344.489 263.08C344.089 262.667 343.569 262.46 342.929 262.46C342.502 262.46 342.122 262.553 341.789 262.74C341.455 262.927 341.195 263.187 341.009 263.52C340.822 263.853 340.729 264.233 340.729 264.66L339.869 264.18C339.869 263.447 340.029 262.8 340.349 262.24C340.669 261.667 341.109 261.22 341.669 260.9C342.242 260.567 342.882 260.4 343.589 260.4C344.309 260.4 344.949 260.587 345.509 260.96C346.069 261.32 346.509 261.793 346.829 262.38C347.149 262.953 347.309 263.553 347.309 264.18V270.2H345.109ZM338.529 270.2V260.6H340.729V270.2H338.529ZM350.887 270.2V256.6H353.087V270.2H350.887ZM348.587 262.6V260.6H355.387V262.6H348.587ZM370.31 270.2L363.67 262.94C363.176 262.393 362.803 261.873 362.55 261.38C362.31 260.887 362.19 260.34 362.19 259.74C362.19 259.033 362.363 258.4 362.71 257.84C363.056 257.267 363.53 256.813 364.13 256.48C364.73 256.147 365.416 255.98 366.19 255.98C366.776 255.98 367.31 256.08 367.79 256.28C368.27 256.467 368.69 256.72 369.05 257.04C369.423 257.347 369.73 257.687 369.97 258.06L368.39 259.46C368.096 259.06 367.776 258.733 367.43 258.48C367.096 258.227 366.683 258.1 366.19 258.1C365.683 258.1 365.256 258.253 364.91 258.56C364.563 258.853 364.39 259.227 364.39 259.68C364.39 260.133 364.483 260.507 364.67 260.8C364.856 261.093 365.116 261.433 365.45 261.82L372.95 270.2H370.31ZM365.53 270.4C364.57 270.4 363.73 270.22 363.01 269.86C362.303 269.487 361.75 268.98 361.35 268.34C360.963 267.687 360.77 266.947 360.77 266.12C360.77 265.28 360.996 264.527 361.45 263.86C361.916 263.193 362.596 262.653 363.49 262.24L364.51 263.58C364.016 263.847 363.636 264.18 363.37 264.58C363.103 264.967 362.97 265.46 362.97 266.06C362.97 266.54 363.076 266.947 363.29 267.28C363.516 267.613 363.83 267.873 364.23 268.06C364.63 268.233 365.09 268.32 365.61 268.32C366.29 268.32 366.85 268.18 367.29 267.9C367.743 267.62 368.083 267.287 368.31 266.9L369.75 268.58C369.47 268.927 369.11 269.24 368.67 269.52C368.23 269.787 367.743 270 367.21 270.16C366.676 270.32 366.116 270.4 365.53 270.4ZM381.118 270.2V256.6H383.418V270.2H381.118ZM376.558 258.3V256.2H387.978V258.3H376.558ZM391.66 270.4C390.7 270.4 389.834 270.187 389.06 269.76C388.3 269.32 387.694 268.72 387.24 267.96C386.8 267.2 386.58 266.347 386.58 265.4C386.58 264.453 386.8 263.607 387.24 262.86C387.68 262.1 388.274 261.5 389.02 261.06C389.78 260.62 390.62 260.4 391.54 260.4C392.434 260.4 393.22 260.607 393.9 261.02C394.594 261.433 395.134 262 395.52 262.72C395.92 263.44 396.12 264.26 396.12 265.18C396.12 265.34 396.107 265.507 396.08 265.68C396.067 265.84 396.04 266.02 396 266.22H388.12V264.42H394.86L394.04 265.14C394.014 264.553 393.9 264.06 393.7 263.66C393.5 263.26 393.214 262.953 392.84 262.74C392.48 262.527 392.034 262.42 391.5 262.42C390.94 262.42 390.454 262.54 390.04 262.78C389.627 263.02 389.307 263.36 389.08 263.8C388.854 264.227 388.74 264.74 388.74 265.34C388.74 265.94 388.86 266.467 389.1 266.92C389.34 267.373 389.68 267.727 390.12 267.98C390.56 268.22 391.067 268.34 391.64 268.34C392.134 268.34 392.587 268.253 393 268.08C393.427 267.907 393.787 267.653 394.08 267.32L395.48 268.74C395.014 269.287 394.447 269.7 393.78 269.98C393.114 270.26 392.407 270.4 391.66 270.4ZM401.024 270.4C400.491 270.4 399.977 270.333 399.484 270.2C398.991 270.053 398.537 269.853 398.124 269.6C397.711 269.333 397.351 269.013 397.044 268.64L398.444 267.24C398.777 267.627 399.157 267.92 399.584 268.12C400.024 268.307 400.517 268.4 401.064 268.4C401.557 268.4 401.931 268.327 402.184 268.18C402.437 268.033 402.564 267.82 402.564 267.54C402.564 267.247 402.444 267.02 402.204 266.86C401.964 266.7 401.651 266.567 401.264 266.46C400.891 266.34 400.491 266.22 400.064 266.1C399.651 265.98 399.251 265.82 398.864 265.62C398.491 265.407 398.184 265.12 397.944 264.76C397.704 264.4 397.584 263.933 397.584 263.36C397.584 262.747 397.724 262.22 398.004 261.78C398.297 261.34 398.704 261 399.224 260.76C399.757 260.52 400.391 260.4 401.124 260.4C401.897 260.4 402.577 260.54 403.164 260.82C403.764 261.087 404.264 261.493 404.664 262.04L403.264 263.44C402.984 263.093 402.664 262.833 402.304 262.66C401.944 262.487 401.531 262.4 401.064 262.4C400.624 262.4 400.284 262.467 400.044 262.6C399.804 262.733 399.684 262.927 399.684 263.18C399.684 263.447 399.804 263.653 400.044 263.8C400.284 263.947 400.591 264.073 400.964 264.18C401.351 264.287 401.751 264.407 402.164 264.54C402.591 264.66 402.991 264.833 403.364 265.06C403.751 265.273 404.064 265.567 404.304 265.94C404.544 266.3 404.664 266.773 404.664 267.36C404.664 268.293 404.337 269.033 403.684 269.58C403.031 270.127 402.144 270.4 401.024 270.4ZM407.938 270.2V256.6H410.138V270.2H407.938ZM405.638 262.6V260.6H412.438V262.6H405.638ZM414.056 270.2V260.6H416.256V270.2H414.056ZM415.156 258.84C414.783 258.84 414.47 258.713 414.216 258.46C413.976 258.207 413.856 257.893 413.856 257.52C413.856 257.147 413.976 256.833 414.216 256.58C414.47 256.327 414.783 256.2 415.156 256.2C415.543 256.2 415.856 256.327 416.096 256.58C416.336 256.833 416.456 257.147 416.456 257.52C416.456 257.893 416.336 258.207 416.096 258.46C415.856 258.713 415.543 258.84 415.156 258.84ZM425.304 270.2V264.66C425.304 264.02 425.097 263.493 424.684 263.08C424.284 262.667 423.764 262.46 423.124 262.46C422.697 262.46 422.317 262.553 421.984 262.74C421.651 262.927 421.391 263.187 421.204 263.52C421.017 263.853 420.924 264.233 420.924 264.66L420.064 264.18C420.064 263.447 420.224 262.8 420.544 262.24C420.864 261.667 421.304 261.22 421.864 260.9C422.437 260.567 423.077 260.4 423.784 260.4C424.504 260.4 425.144 260.587 425.704 260.96C426.264 261.32 426.704 261.793 427.024 262.38C427.344 262.953 427.504 263.553 427.504 264.18V270.2H425.304ZM418.724 270.2V260.6H420.924V270.2H418.724ZM433.74 274.4C432.726 274.4 431.84 274.213 431.08 273.84C430.32 273.48 429.706 272.967 429.24 272.3L430.68 270.86C431.066 271.34 431.506 271.7 432 271.94C432.493 272.18 433.086 272.3 433.78 272.3C434.646 272.3 435.333 272.073 435.84 271.62C436.346 271.18 436.6 270.573 436.6 269.8V267.44L436.98 265.32L436.6 263.18V260.6H438.8V269.8C438.8 270.72 438.586 271.52 438.16 272.2C437.733 272.893 437.14 273.433 436.38 273.82C435.62 274.207 434.74 274.4 433.74 274.4ZM433.64 270C432.786 270 432.013 269.793 431.32 269.38C430.64 268.953 430.1 268.373 429.7 267.64C429.313 266.907 429.12 266.087 429.12 265.18C429.12 264.273 429.313 263.46 429.7 262.74C430.1 262.02 430.64 261.453 431.32 261.04C432.013 260.613 432.786 260.4 433.64 260.4C434.4 260.4 435.066 260.553 435.64 260.86C436.213 261.167 436.66 261.593 436.98 262.14C437.3 262.673 437.46 263.3 437.46 264.02V266.38C437.46 267.087 437.293 267.713 436.96 268.26C436.64 268.807 436.193 269.233 435.62 269.54C435.046 269.847 434.386 270 433.64 270ZM434.08 267.92C434.613 267.92 435.08 267.807 435.48 267.58C435.88 267.353 436.186 267.04 436.4 266.64C436.626 266.227 436.74 265.747 436.74 265.2C436.74 264.653 436.626 264.18 436.4 263.78C436.186 263.367 435.88 263.047 435.48 262.82C435.08 262.593 434.613 262.48 434.08 262.48C433.546 262.48 433.073 262.593 432.66 262.82C432.26 263.047 431.946 263.367 431.72 263.78C431.493 264.18 431.38 264.653 431.38 265.2C431.38 265.733 431.493 266.207 431.72 266.62C431.946 267.033 432.26 267.353 432.66 267.58C433.073 267.807 433.546 267.92 434.08 267.92Z" fill="white"/>
<rect x="372" y="340.2" width="89.5222" height="46" rx="23" fill="#7219A3"/>
<path d="M387.52 370.2V356.2H389.82V370.2H387.52ZM389.1 370.2V368.1H396.42V370.2H389.1ZM401.904 370.4C401.037 370.4 400.251 370.18 399.544 369.74C398.851 369.3 398.297 368.707 397.884 367.96C397.484 367.2 397.284 366.353 397.284 365.42C397.284 364.473 397.484 363.627 397.884 362.88C398.297 362.12 398.851 361.52 399.544 361.08C400.251 360.627 401.037 360.4 401.904 360.4C402.637 360.4 403.284 360.56 403.844 360.88C404.417 361.187 404.871 361.613 405.204 362.16C405.537 362.707 405.704 363.327 405.704 364.02V366.78C405.704 367.473 405.537 368.093 405.204 368.64C404.884 369.187 404.437 369.62 403.864 369.94C403.291 370.247 402.637 370.4 401.904 370.4ZM402.264 368.32C403.077 368.32 403.731 368.047 404.224 367.5C404.731 366.953 404.984 366.253 404.984 365.4C404.984 364.827 404.871 364.32 404.644 363.88C404.417 363.44 404.097 363.1 403.684 362.86C403.284 362.607 402.811 362.48 402.264 362.48C401.731 362.48 401.257 362.607 400.844 362.86C400.444 363.1 400.124 363.44 399.884 363.88C399.657 364.32 399.544 364.827 399.544 365.4C399.544 365.973 399.657 366.48 399.884 366.92C400.124 367.36 400.444 367.707 400.844 367.96C401.257 368.2 401.731 368.32 402.264 368.32ZM404.844 370.2V367.62L405.224 365.28L404.844 362.96V360.6H407.044V370.2H404.844ZM413.426 370.4C412.612 370.4 411.886 370.22 411.246 369.86C410.619 369.5 410.126 369.007 409.766 368.38C409.419 367.74 409.246 367.007 409.246 366.18V360.6H411.446V366.08C411.446 366.547 411.519 366.947 411.666 367.28C411.826 367.6 412.052 367.847 412.346 368.02C412.652 368.193 413.012 368.28 413.426 368.28C414.066 368.28 414.552 368.093 414.886 367.72C415.232 367.333 415.406 366.787 415.406 366.08V360.6H417.606V366.18C417.606 367.02 417.426 367.76 417.066 368.4C416.719 369.027 416.232 369.52 415.606 369.88C414.979 370.227 414.252 370.4 413.426 370.4ZM426.398 370.2V364.66C426.398 364.02 426.191 363.493 425.778 363.08C425.378 362.667 424.858 362.46 424.218 362.46C423.791 362.46 423.411 362.553 423.078 362.74C422.744 362.927 422.484 363.187 422.298 363.52C422.111 363.853 422.018 364.233 422.018 364.66L421.158 364.18C421.158 363.447 421.318 362.8 421.638 362.24C421.958 361.667 422.398 361.22 422.958 360.9C423.531 360.567 424.171 360.4 424.878 360.4C425.598 360.4 426.238 360.587 426.798 360.96C427.358 361.32 427.798 361.793 428.118 362.38C428.438 362.953 428.598 363.553 428.598 364.18V370.2H426.398ZM419.818 370.2V360.6H422.018V370.2H419.818ZM435.253 370.4C434.307 370.4 433.447 370.18 432.673 369.74C431.913 369.3 431.313 368.7 430.873 367.94C430.433 367.18 430.213 366.333 430.213 365.4C430.213 364.453 430.433 363.607 430.873 362.86C431.313 362.1 431.913 361.5 432.673 361.06C433.447 360.62 434.307 360.4 435.253 360.4C436 360.4 436.693 360.547 437.333 360.84C437.987 361.12 438.54 361.527 438.993 362.06L437.553 363.52C437.273 363.187 436.933 362.94 436.533 362.78C436.147 362.607 435.72 362.52 435.253 362.52C434.707 362.52 434.22 362.647 433.793 362.9C433.38 363.14 433.053 363.473 432.813 363.9C432.587 364.327 432.473 364.827 432.473 365.4C432.473 365.96 432.587 366.46 432.813 366.9C433.053 367.327 433.38 367.667 433.793 367.92C434.22 368.16 434.707 368.28 435.253 368.28C435.72 368.28 436.147 368.2 436.533 368.04C436.933 367.867 437.273 367.613 437.553 367.28L438.993 368.74C438.54 369.273 437.987 369.687 437.333 369.98C436.693 370.26 436 370.4 435.253 370.4ZM447.159 370.2V364.66C447.159 364.02 446.953 363.493 446.539 363.08C446.139 362.667 445.619 362.46 444.979 362.46C444.553 362.46 444.173 362.553 443.839 362.74C443.506 362.927 443.246 363.187 443.059 363.52C442.873 363.853 442.779 364.233 442.779 364.66L441.919 364.18C441.919 363.447 442.079 362.8 442.399 362.24C442.719 361.667 443.159 361.22 443.719 360.9C444.293 360.567 444.933 360.4 445.639 360.4C446.359 360.4 446.999 360.56 447.559 360.88C448.119 361.2 448.559 361.647 448.879 362.22C449.199 362.78 449.359 363.433 449.359 364.18V370.2H447.159ZM440.579 370.2V355.8H442.779V370.2H440.579Z" fill="white"/>
<rect x="418.5" y="435.2" width="148.868" height="46" rx="23" fill="#01CFFF"/>
<path d="M464.92 465.4C463.813 465.4 462.873 465.2 462.1 464.8C461.327 464.4 460.633 463.813 460.02 463.04L461.58 461.48C461.967 462.04 462.427 462.48 462.96 462.8C463.493 463.107 464.173 463.26 465 463.26C465.773 463.26 466.387 463.1 466.84 462.78C467.307 462.46 467.54 462.02 467.54 461.46C467.54 460.993 467.42 460.613 467.18 460.32C466.94 460.027 466.62 459.787 466.22 459.6C465.833 459.4 465.4 459.227 464.92 459.08C464.453 458.92 463.98 458.747 463.5 458.56C463.033 458.36 462.6 458.113 462.2 457.82C461.813 457.527 461.5 457.147 461.26 456.68C461.02 456.213 460.9 455.62 460.9 454.9C460.9 454.073 461.1 453.373 461.5 452.8C461.913 452.213 462.467 451.767 463.16 451.46C463.853 451.153 464.627 451 465.48 451C466.4 451 467.22 451.18 467.94 451.54C468.673 451.9 469.267 452.36 469.72 452.92L468.16 454.48C467.76 454.027 467.34 453.693 466.9 453.48C466.473 453.253 465.98 453.14 465.42 453.14C464.727 453.14 464.18 453.28 463.78 453.56C463.393 453.84 463.2 454.233 463.2 454.74C463.2 455.167 463.32 455.513 463.56 455.78C463.8 456.033 464.113 456.253 464.5 456.44C464.9 456.613 465.333 456.78 465.8 456.94C466.28 457.1 466.753 457.28 467.22 457.48C467.7 457.68 468.133 457.94 468.52 458.26C468.92 458.567 469.24 458.967 469.48 459.46C469.72 459.953 469.84 460.573 469.84 461.32C469.84 462.573 469.393 463.567 468.5 464.3C467.62 465.033 466.427 465.4 464.92 465.4ZM475.773 465.4C474.96 465.4 474.233 465.22 473.593 464.86C472.967 464.5 472.473 464.007 472.113 463.38C471.767 462.74 471.593 462.007 471.593 461.18V455.6H473.793V461.08C473.793 461.547 473.867 461.947 474.013 462.28C474.173 462.6 474.4 462.847 474.693 463.02C475 463.193 475.36 463.28 475.773 463.28C476.413 463.28 476.9 463.093 477.233 462.72C477.58 462.333 477.753 461.787 477.753 461.08V455.6H479.953V461.18C479.953 462.02 479.773 462.76 479.413 463.4C479.067 464.027 478.58 464.52 477.953 464.88C477.327 465.227 476.6 465.4 475.773 465.4ZM487.305 465.4C486.572 465.4 485.919 465.247 485.345 464.94C484.772 464.62 484.319 464.187 483.985 463.64C483.665 463.093 483.505 462.473 483.505 461.78V459.02C483.505 458.327 483.672 457.707 484.005 457.16C484.339 456.613 484.792 456.187 485.365 455.88C485.939 455.56 486.585 455.4 487.305 455.4C488.172 455.4 488.952 455.627 489.645 456.08C490.352 456.52 490.905 457.12 491.305 457.88C491.719 458.627 491.925 459.473 491.925 460.42C491.925 461.353 491.719 462.2 491.305 462.96C490.905 463.707 490.352 464.3 489.645 464.74C488.952 465.18 488.172 465.4 487.305 465.4ZM482.165 469.2V455.6H484.365V458.18L483.985 460.52L484.365 462.84V469.2H482.165ZM486.945 463.32C487.479 463.32 487.945 463.2 488.345 462.96C488.759 462.707 489.079 462.36 489.305 461.92C489.545 461.48 489.665 460.973 489.665 460.4C489.665 459.827 489.545 459.32 489.305 458.88C489.079 458.44 488.759 458.1 488.345 457.86C487.945 457.607 487.479 457.48 486.945 457.48C486.412 457.48 485.939 457.607 485.525 457.86C485.112 458.1 484.792 458.44 484.565 458.88C484.339 459.32 484.225 459.827 484.225 460.4C484.225 460.973 484.339 461.48 484.565 461.92C484.792 462.36 485.112 462.707 485.525 462.96C485.939 463.2 486.412 463.32 486.945 463.32ZM498.907 465.4C498.174 465.4 497.52 465.247 496.947 464.94C496.374 464.62 495.92 464.187 495.587 463.64C495.267 463.093 495.107 462.473 495.107 461.78V459.02C495.107 458.327 495.274 457.707 495.607 457.16C495.94 456.613 496.394 456.187 496.967 455.88C497.54 455.56 498.187 455.4 498.907 455.4C499.774 455.4 500.554 455.627 501.247 456.08C501.954 456.52 502.507 457.12 502.907 457.88C503.32 458.627 503.527 459.473 503.527 460.42C503.527 461.353 503.32 462.2 502.907 462.96C502.507 463.707 501.954 464.3 501.247 464.74C500.554 465.18 499.774 465.4 498.907 465.4ZM493.767 469.2V455.6H495.967V458.18L495.587 460.52L495.967 462.84V469.2H493.767ZM498.547 463.32C499.08 463.32 499.547 463.2 499.947 462.96C500.36 462.707 500.68 462.36 500.907 461.92C501.147 461.48 501.267 460.973 501.267 460.4C501.267 459.827 501.147 459.32 500.907 458.88C500.68 458.44 500.36 458.1 499.947 457.86C499.547 457.607 499.08 457.48 498.547 457.48C498.014 457.48 497.54 457.607 497.127 457.86C496.714 458.1 496.394 458.44 496.167 458.88C495.94 459.32 495.827 459.827 495.827 460.4C495.827 460.973 495.94 461.48 496.167 461.92C496.394 462.36 496.714 462.707 497.127 462.96C497.54 463.2 498.014 463.32 498.547 463.32ZM509.768 465.4C508.835 465.4 507.988 465.18 507.228 464.74C506.468 464.287 505.862 463.68 505.408 462.92C504.968 462.16 504.748 461.313 504.748 460.38C504.748 459.447 504.968 458.607 505.408 457.86C505.862 457.113 506.468 456.52 507.228 456.08C507.988 455.627 508.835 455.4 509.768 455.4C510.715 455.4 511.568 455.62 512.328 456.06C513.088 456.5 513.688 457.1 514.128 457.86C514.582 458.607 514.808 459.447 514.808 460.38C514.808 461.313 514.582 462.16 514.128 462.92C513.688 463.68 513.088 464.287 512.328 464.74C511.568 465.18 510.715 465.4 509.768 465.4ZM509.768 463.28C510.315 463.28 510.795 463.16 511.208 462.92C511.635 462.667 511.962 462.32 512.188 461.88C512.428 461.44 512.548 460.94 512.548 460.38C512.548 459.82 512.428 459.327 512.188 458.9C511.948 458.473 511.622 458.14 511.208 457.9C510.795 457.647 510.315 457.52 509.768 457.52C509.235 457.52 508.755 457.647 508.328 457.9C507.915 458.14 507.588 458.473 507.348 458.9C507.122 459.327 507.008 459.82 507.008 460.38C507.008 460.94 507.122 461.44 507.348 461.88C507.588 462.32 507.915 462.667 508.328 462.92C508.755 463.16 509.235 463.28 509.768 463.28ZM516.638 465.2V455.6H518.838V465.2H516.638ZM518.838 459.86L518.078 459.48C518.078 458.267 518.345 457.287 518.878 456.54C519.425 455.78 520.245 455.4 521.338 455.4C521.818 455.4 522.251 455.487 522.638 455.66C523.025 455.833 523.385 456.113 523.718 456.5L522.278 457.98C522.105 457.793 521.911 457.66 521.698 457.58C521.485 457.5 521.238 457.46 520.958 457.46C520.345 457.46 519.838 457.653 519.438 458.04C519.038 458.427 518.838 459.033 518.838 459.86ZM526.262 465.2V451.6H528.462V465.2H526.262ZM523.962 457.6V455.6H530.762V457.6H523.962Z" fill="white"/>
</svg>
