<svg width="50" height="50" viewBox="0 0 50 50" fill="none" xmlns="http://www.w3.org/2000/svg">
<rect width="50" height="50" rx="25" fill="url(#paint0_linear_124_866)"/>
<mask id="mask0_124_866" style="mask-type:luminance" maskUnits="userSpaceOnUse" x="10" y="7" width="29" height="36">
<path d="M10.4321 7.40869H38.2346V42.5939H10.4321V7.40869Z" fill="white"/>
</mask>
<g mask="url(#mask0_124_866)">
<path fill-rule="evenodd" clip-rule="evenodd" d="M33.5681 33.9247C33.7767 34.1333 33.7767 34.4699 33.5681 34.678L29.2794 38.9687C29.0548 39.1934 28.6854 39.1732 28.4867 38.9253L26.7711 36.7797C26.587 36.5503 26.6239 36.2147 26.854 36.0306C27.084 35.8466 27.4188 35.8842 27.6029 36.1138L28.9466 37.7939L32.8151 33.9245C33.0232 33.7166 33.3606 33.7166 33.5681 33.9247ZM30.5093 41.526C33.2907 41.526 35.5535 39.2633 35.5535 36.4814C35.5535 33.6994 33.2907 31.4363 30.5093 31.4363C27.729 31.4363 25.4667 33.6994 25.4667 36.4814C25.4667 39.2633 27.729 41.526 30.5093 41.526ZM20.6366 39.5493C20.4507 39.5493 20.2931 39.3925 20.2931 39.2062V36.9189H24.4186C24.4862 37.8723 24.773 38.7662 25.2302 39.5493H20.6366ZM18.5224 35.7918V33.732C18.5224 33.7 18.5506 33.6716 18.5838 33.6716H25.0878C24.7419 34.3371 24.5132 35.0735 24.4329 35.8532H18.5838C18.5506 35.8532 18.5224 35.8248 18.5224 35.7918ZM18.5705 30.4348C16.855 29.0746 15.7973 27.0922 15.6169 24.9334H17.3918V25.7287C17.3918 26.7548 18.2271 27.5902 19.2527 27.5902C20.2794 27.5902 21.114 26.7548 21.114 25.7287V24.9334H22.9159V27.3341C22.9159 27.6284 23.1542 27.8672 23.4491 27.8672H24.7767C25.2149 27.8672 25.5718 28.2241 25.5718 28.6626C25.5718 29.101 25.2149 29.4579 24.7767 29.4579H23.4491C23.1544 29.4579 22.9159 29.6967 22.9159 29.9907V32.6055H20.0845C19.8189 31.7592 19.3017 31.0148 18.5705 30.4348ZM22.121 20.9334C21.6818 20.9334 21.3249 20.5765 21.3249 20.1381C21.3249 19.6996 21.6818 19.3427 22.121 19.3427H23.4491C23.7429 19.3427 23.9817 19.1045 23.9817 18.8094V16.4268C27.9341 16.6932 31.0957 19.8966 31.2977 23.8672H29.5708V23.0719C29.5708 22.0455 28.7362 21.2104 27.7103 21.2104C26.6843 21.2104 25.8496 22.0455 25.8496 23.0719V23.8672H23.9817V21.4664C23.9817 21.1722 23.7429 20.9334 23.4489 20.9334H22.121ZM28.3276 30.4348C28.0814 30.6302 27.8592 30.8464 27.6615 31.0777C26.941 31.4591 26.3044 31.9801 25.7907 32.6055H23.9817V30.5241H24.7769C25.8025 30.5241 26.6376 29.6892 26.6376 28.6626C26.6376 27.6361 25.8025 26.8011 24.7769 26.8011H23.9817V24.9336H26.3824C26.6767 24.9336 26.9156 24.6946 26.9156 24.4002V23.0721C26.9156 22.6336 27.2718 22.2768 27.7105 22.2768C28.149 22.2768 28.5056 22.6336 28.5056 23.0721V24.4002C28.5056 24.6946 28.7443 24.9336 29.0382 24.9336H31.2813C31.1009 27.0922 30.0436 29.0746 28.3276 30.4348ZM30.5093 30.3701C30.3187 30.3701 30.1285 30.3802 29.9418 30.3975C31.5016 28.7478 32.3731 26.5752 32.3731 24.2708C32.3731 19.3483 28.3696 15.3431 23.4491 15.3431C23.1544 15.3431 22.9159 15.5816 22.9159 15.8765V18.2766H22.121C21.0944 18.2766 20.2597 19.1115 20.2597 20.1381C20.2597 21.1641 21.0944 21.999 22.121 21.999H22.9159V23.867H20.5814C20.2865 23.867 20.0488 24.1059 20.0488 24.4V25.7285C20.0488 26.167 19.692 26.5239 19.2527 26.5239C18.8145 26.5239 18.4578 26.167 18.4578 25.7285V24.4C18.4578 24.1059 18.2196 23.867 17.9246 23.867H15.0575C14.7607 23.867 14.5201 24.1116 14.5244 24.4079C14.5658 27.096 15.7983 29.5979 17.9086 31.2702C18.3824 31.6458 18.7306 32.0939 18.9499 32.6055H18.5838C17.9628 32.6055 17.4566 33.1109 17.4566 33.732V35.7918C17.4566 36.413 17.9628 36.9189 18.5838 36.9189H19.2273V39.2062C19.2273 39.983 19.8596 40.6155 20.6366 40.6155H26.0166C27.1335 41.8294 28.7344 42.5922 30.5093 42.5922C33.8781 42.5922 36.6189 39.8508 36.6189 36.4814C36.6189 33.1115 33.8781 30.3701 30.5093 30.3701ZM37.9617 16.634L35.9316 17.8071C35.681 17.9512 35.3527 17.8699 35.203 17.6111C35.0558 17.3562 35.1436 17.0306 35.3988 16.8833L37.4291 15.7108C37.6833 15.5632 38.0099 15.6504 38.1567 15.9052C38.3037 16.1606 38.2169 16.4859 37.9617 16.634ZM30.0398 11.9133L31.2124 9.8819C31.3596 9.62708 31.6856 9.5397 31.9402 9.68649C32.1947 9.83464 32.2823 10.1599 32.1351 10.4153L30.9628 12.4461C30.8133 12.7052 30.4848 12.786 30.2352 12.6419C29.9804 12.4938 29.8926 12.1682 30.0398 11.9133ZM22.9159 10.2891V7.94382C22.9159 7.64946 23.1542 7.41064 23.4491 7.41064C23.7429 7.41064 23.9817 7.64946 23.9817 7.94382V10.2891C23.9817 10.5837 23.7429 10.8221 23.4491 10.8221C23.1542 10.8221 22.9159 10.5837 22.9159 10.2891ZM14.4073 20.1423V18.8136C14.4073 18.5192 14.1684 18.2808 13.8745 18.2808H11.5494C11.7514 14.309 14.913 11.1057 18.8654 10.84V12.6902H18.0705C17.0448 12.6902 16.2095 13.525 16.2095 14.5517C16.2095 15.5777 17.0448 16.4126 18.0705 16.4126H18.8654V18.2808H16.5303C16.236 18.2808 15.9972 18.5191 15.9972 18.8136V20.1421C15.9972 20.5808 15.6405 20.9375 15.2022 20.9375C14.7639 20.9376 14.4073 20.5808 14.4073 20.1423ZM17.0631 20.1423C17.0631 21.1684 16.2284 22.0038 15.2022 22.0038C14.1766 22.0038 13.3415 21.1684 13.3415 20.1423V19.347H11.0072C10.7161 19.347 10.4788 19.113 10.4746 18.8217C10.4127 13.8161 14.4343 9.75632 19.398 9.75632C19.6926 9.75632 19.9312 9.99514 19.9312 10.2891V13.223C19.9312 13.5175 19.6926 13.7557 19.398 13.7557H18.0705C17.6322 13.7557 17.2753 14.113 17.2753 14.5517C17.2753 14.9901 17.6322 15.3468 18.0705 15.3468H19.398C19.6926 15.3468 19.9312 15.5856 19.9312 15.8798V18.8134C19.9312 19.108 19.6926 19.3468 19.398 19.3468H17.0631V20.1423Z" fill="white"/>
</g>
<defs>
<linearGradient id="paint0_linear_124_866" x1="25" y1="0" x2="25" y2="50" gradientUnits="userSpaceOnUse">
<stop stop-color="#01CFFF" stop-opacity="0"/>
<stop offset="1" stop-color="#7219A3"/>
</linearGradient>
</defs>
</svg>
