<svg width="50" height="50" viewBox="0 0 50 50" fill="none" xmlns="http://www.w3.org/2000/svg">
<rect width="50" height="50" rx="25" fill="url(#paint0_linear_124_902)"/>
<mask id="mask0_124_902" style="mask-type:luminance" maskUnits="userSpaceOnUse" x="6" y="12" width="37" height="25">
<path d="M6.77783 12.5513H42.6791V36.753H6.77783V12.5513Z" fill="white"/>
</mask>
<g mask="url(#mask0_124_902)">
<path d="M6.81274 27.1363V30.4355C6.81274 30.9052 7.197 31.2897 7.66653 31.2897H14.5612C14.5184 31.674 14.4972 32.069 14.4972 32.4641V35.8807C14.4972 36.3507 14.8814 36.7349 15.3509 36.7349H34.1349C34.6044 36.7349 34.9887 36.3507 34.9887 35.8807V32.4641C34.9887 32.069 34.9673 31.674 34.9246 31.2897H41.8191C42.2888 31.2897 42.6731 30.9052 42.6731 30.4355V27.1363C42.6731 23.9224 40.5811 21.1998 37.6889 20.239C38.5001 19.4274 38.991 18.3063 38.991 17.0679C38.991 14.58 36.963 12.5513 34.4763 12.5513C32.0431 12.5513 30.0579 14.4839 29.9619 16.8863C29.3642 14.3985 27.1229 12.5513 24.4547 12.5513C21.9252 12.5513 19.7801 14.2064 19.0436 16.5019C18.7663 14.281 16.8664 12.5513 14.5718 12.5513C12.0851 12.5513 10.0573 14.58 10.0573 17.0679C10.0573 18.3597 10.6015 19.5341 11.4873 20.3562C8.75526 21.4027 6.81274 24.0507 6.81274 27.1363ZM40.9653 27.1363V29.5814H34.5724C33.8147 26.9974 32.0643 24.83 29.7591 23.5273C30.805 22.2995 32.3419 21.5735 33.9854 21.5735H35.4156C38.4786 21.5843 40.9653 24.0719 40.9653 27.1363ZM34.4763 14.2596C36.024 14.2596 37.2832 15.5196 37.2832 17.0679C37.2832 18.6159 36.024 19.8759 34.4763 19.8759C32.9289 19.8759 31.6694 18.6159 31.6694 17.0679C31.6694 15.5196 32.9289 14.2596 34.4763 14.2596ZM30.1326 18.2849C30.3567 19.0858 30.7942 19.8011 31.392 20.3562C30.122 20.8474 29.0012 21.6803 28.1688 22.8015C28.0942 22.7692 28.0193 22.748 27.9447 22.7266C29.2574 21.6909 30.122 20.0895 30.1326 18.2849ZM24.4547 14.2596C26.6426 14.2596 28.4356 16.0428 28.4356 18.2422C28.4356 20.4417 26.6532 22.2249 24.4547 22.2249C22.2562 22.2249 20.4738 20.4311 20.4738 18.2422C20.4738 16.0534 22.2562 14.2596 24.4547 14.2596ZM24.7429 23.9224C29.4495 23.9224 33.2811 27.7556 33.2811 32.4641V35.0266H16.2047V32.4641C16.2047 27.7556 20.0363 23.9224 24.7429 23.9224ZM18.7875 18.6587C18.8515 19.5449 19.1183 20.3777 19.5454 21.1037C19.001 20.7301 18.4034 20.4417 17.7736 20.239C18.2113 19.7905 18.5633 19.2565 18.7875 18.6587ZM14.5612 14.2596C16.1087 14.2596 17.3681 15.5196 17.3681 17.0679C17.3681 18.6159 16.1087 19.8759 14.5612 19.8759C13.0136 19.8759 11.7543 18.6159 11.7543 17.0679C11.7543 15.5196 13.0136 14.2596 14.5612 14.2596ZM14.0703 21.5843H15.5002C17.144 21.5843 18.6702 22.2995 19.7267 23.5382C17.4213 24.8406 15.6712 27.0083 14.9134 29.592H8.5205V27.1469C8.5205 24.0719 11.0072 21.5843 14.0703 21.5843Z" fill="white"/>
</g>
<mask id="mask1_124_902" style="mask-type:luminance" maskUnits="userSpaceOnUse" x="5" y="37" width="39" height="1">
<path d="M5.9187 37.2964H43.8147V37.4403H5.9187V37.2964Z" fill="white"/>
</mask>
<g mask="url(#mask1_124_902)">
<path d="M1.0922 37.3223H-5.99441C-6.46413 37.3223 -6.84839 37.7065 -6.84839 38.1764V53.9785C-6.84839 54.4482 -6.46413 54.8327 -5.99441 54.8327H1.0922C1.56172 54.8327 1.94598 54.4482 1.94598 53.9785V52.6224H5.36129L15.4896 55.8363C17.7843 56.6905 19.716 57.1068 21.6371 57.1068C23.5689 57.1068 25.5006 56.6797 27.8059 55.8255C27.8912 55.7935 27.9767 55.7509 28.0513 55.6868L42.8864 43.579C42.929 43.5362 42.9718 43.4936 43.0145 43.4509C44.071 42.1377 44.0177 40.1303 42.8864 38.8811C41.7658 37.6319 39.962 37.5038 38.7027 38.5927L31.2959 44.5827C31.2959 44.5078 31.2959 44.4332 31.2959 44.3583C31.2639 42.5754 29.8657 41.1126 28.1688 41.1126H19.9402C19.4705 41.1126 19.0222 40.835 18.7448 40.3759C18.6807 40.2798 18.6061 40.1944 18.51 40.1195C15.0201 37.589 10.6123 37.1087 6.73803 38.8383L5.30786 39.4789H1.94598V38.1764C1.94598 37.7065 1.57252 37.3223 1.0922 37.3223ZM-2.57929 51.8431C-3.04881 51.8431 -3.43307 51.4586 -3.43307 50.9889C-3.43307 50.519 -3.04881 50.1348 -2.57929 50.1348C-2.10958 50.1348 -1.72551 50.519 -1.72551 50.9889C-1.72551 51.4586 -2.10958 51.8431 -2.57929 51.8431ZM0.238417 40.3439V53.1243H-1.15973C-0.476668 52.6652 -0.017756 51.8857 -0.017756 50.9889C-0.017756 49.5796 -1.17053 48.4264 -2.57929 48.4264C-3.98805 48.4264 -5.14063 49.5796 -5.14063 50.9889C-5.14063 51.8751 -4.68172 52.6652 -3.99866 53.1243H-5.14063V39.0306H0.238417V40.3439ZM5.49999 41.198C5.61747 41.198 5.73475 41.1766 5.84143 41.1232L7.44231 40.4079C10.7083 38.9558 14.4116 39.3402 17.3893 41.4222C17.9871 42.3084 18.9263 42.8209 19.9508 42.8209H28.1794C28.9479 42.8209 29.5881 43.5256 29.5989 44.3798C29.6096 44.8603 29.4388 45.3088 29.1292 45.6184C28.9799 45.7679 28.7984 45.8852 28.6171 45.9494C28.3715 45.992 28.1261 46.0134 27.8806 46.0134H18.7234C18.2538 46.0134 17.8696 46.3977 17.8696 46.8676C17.8696 47.3373 18.2538 47.7218 18.7234 47.7218H28.2648C28.521 47.7218 28.7772 47.6897 29.0226 47.6257C30.0899 47.4334 31.0932 46.9637 31.979 46.259L39.8127 39.9168C39.8233 39.906 39.8233 39.906 39.8341 39.8954C40.3891 39.4149 41.1468 39.4789 41.6483 40.0235C42.2033 40.6321 42.2459 41.6463 41.755 42.3192L27.1121 54.2775C22.9712 55.7935 20.271 55.7723 16.098 54.2241C16.0874 54.2241 16.0766 54.2135 16.0554 54.2135L5.78819 50.9461C5.70273 50.9249 5.61747 50.9035 5.53201 50.9035H1.94598V41.1872H5.49999V41.198Z" fill="white"/>
</g>
<defs>
<linearGradient id="paint0_linear_124_902" x1="25" y1="0" x2="25" y2="50" gradientUnits="userSpaceOnUse">
<stop stop-color="#01CFFF" stop-opacity="0"/>
<stop offset="1" stop-color="#7219A3"/>
</linearGradient>
</defs>
</svg>
